<?xml version="1.0" encoding="UTF-8" standalone="no"?>
<svg width="67.7333mm" height="67.7333mm"
 viewBox="0 0 200 200"
 xmlns="http://www.w3.org/2000/svg" xmlns:xlink="http://www.w3.org/1999/xlink"  version="1.2" baseProfile="tiny">
<defs>
</defs>
<g fill="none" stroke="black" stroke-width="1" fill-rule="evenodd" stroke-linecap="square" stroke-linejoin="bevel" >

<g fill="#ffffff" fill-opacity="0" stroke="none" transform="matrix(1,0,0,1,0,0)"
font-family="Nimbus Sans L" font-size="12.5" font-weight="400" font-style="normal" 
>
<path vector-effect="non-scaling-stroke" fill-rule="evenodd" d="M0,0 L200,0 L200,200 L0,200 L0,0z "/>
</g>

<g fill="none" stroke="#000000" stroke-opacity="1" stroke-width="1" stroke-linecap="square" stroke-linejoin="bevel" transform="matrix(1,0,0,1,0,0)"
font-family="Nimbus Sans L" font-size="12.5" font-weight="400" font-style="normal" 
>
</g>

<g fill="none" stroke="#000000" stroke-opacity="1" stroke-width="1" stroke-linecap="square" stroke-linejoin="bevel" transform="matrix(1,0,0,1,0,0)"
font-family="Nimbus Sans L" font-size="12.5" font-weight="400" font-style="normal" 
clip-path="url(#clip1512)" >
<defs><clipPath id="clip1512"><path vector-effect="non-scaling-stroke" fill-rule="evenodd" d="M0,0 L200,0 L200,200 L0,200 L0,0z "/>
</clipPath></defs></g>

<g fill="none" stroke="#000000" stroke-opacity="1" stroke-width="1" stroke-linecap="square" stroke-linejoin="bevel" transform="matrix(3.125,0,0,3.125,6.25,6.25)"
font-family="Nimbus Sans L" font-size="12.5" font-weight="400" font-style="normal" 
clip-path="url(#clip1513)" >
<defs><clipPath id="clip1513"><path vector-effect="non-scaling-stroke" fill-rule="evenodd" d="M-2,-2 L62,-2 L62,62 L-2,62 L-2,-2z "/>
</clipPath></defs></g>

<g fill="#e8d152" fill-opacity="1" stroke="none" transform="matrix(3.125,0,0,3.125,6.25,6.25)"
font-family="Nimbus Sans L" font-size="12.5" font-weight="400" font-style="normal" 
clip-path="url(#clip1513)" >
<path vector-effect="none" fill-rule="evenodd" d="M0,0 L60,0 L60,60 L0,60 L0,0z "/>
</g>

<g fill="none" stroke="#000000" stroke-opacity="1" stroke-width="1" stroke-linecap="square" stroke-linejoin="bevel" transform="matrix(3.125,0,0,3.125,6.25,6.25)"
font-family="Nimbus Sans L" font-size="12.5" font-weight="400" font-style="normal" 
clip-path="url(#clip1513)" >
</g>

<g fill="none" stroke="#000000" stroke-opacity="1" stroke-width="1" stroke-linecap="square" stroke-linejoin="bevel" transform="matrix(3.125,0,0,3.125,6.25,6.25)"
font-family="Nimbus Sans L" font-size="12.5" font-weight="400" font-style="normal" 
clip-path="url(#clip1513)" >
</g>

<g fill="none" stroke="#000000" stroke-opacity="1" stroke-width="1" stroke-linecap="square" stroke-linejoin="bevel" transform="matrix(3.125,0,0,3.125,6.25,6.25)"
font-family="Nimbus Sans L" font-size="12.5" font-weight="400" font-style="normal" 
clip-path="url(#clip1514)" >
<defs><clipPath id="clip1514"><path vector-effect="non-scaling-stroke" fill-rule="evenodd" d="M0,0 L60,0 L60,60 L0,60 L0,0z "/>
</clipPath></defs></g>

<g fill="none" stroke="#000000" stroke-opacity="1" stroke-width="1" stroke-linecap="square" stroke-linejoin="bevel" transform="matrix(3.125,0,0,3.125,-367.188,-992.188)"
font-family="Nimbus Sans L" font-size="12.5" font-weight="400" font-style="normal" 
clip-path="url(#clip1515)" >
<defs><clipPath id="clip1515"><path vector-effect="none" fill-rule="evenodd" d="M120,320 L180,320 L180,380 L120,380 L120,320z "/>
</clipPath></defs><polyline fill="none" vector-effect="none" points="146,331 155,331 " />
</g>

<g fill="none" stroke="#000000" stroke-opacity="1" stroke-width="1" stroke-linecap="square" stroke-linejoin="bevel" transform="matrix(3.125,0,0,3.125,-367.188,-992.188)"
font-family="Nimbus Sans L" font-size="12.5" font-weight="400" font-style="normal" 
clip-path="url(#clip1515)" >
<polyline fill="none" vector-effect="none" points="155,331 154,328 " />
</g>

<g fill="none" stroke="#000000" stroke-opacity="1" stroke-width="1" stroke-linecap="square" stroke-linejoin="bevel" transform="matrix(3.125,0,0,3.125,-367.188,-992.188)"
font-family="Nimbus Sans L" font-size="12.5" font-weight="400" font-style="normal" 
clip-path="url(#clip1515)" >
<polyline fill="none" vector-effect="none" points="154,328 156,331 " />
</g>

<g fill="none" stroke="#000000" stroke-opacity="1" stroke-width="1" stroke-linecap="square" stroke-linejoin="bevel" transform="matrix(3.125,0,0,3.125,-367.188,-992.188)"
font-family="Nimbus Sans L" font-size="12.5" font-weight="400" font-style="normal" 
clip-path="url(#clip1515)" >
<polyline fill="none" vector-effect="none" points="156,331 154,334 " />
</g>

<g fill="none" stroke="#000000" stroke-opacity="1" stroke-width="1" stroke-linecap="square" stroke-linejoin="bevel" transform="matrix(3.125,0,0,3.125,-367.188,-992.188)"
font-family="Nimbus Sans L" font-size="12.5" font-weight="400" font-style="normal" 
clip-path="url(#clip1515)" >
<polyline fill="none" vector-effect="none" points="154,334 155,332 " />
</g>

<g fill="none" stroke="#000000" stroke-opacity="1" stroke-width="1" stroke-linecap="square" stroke-linejoin="bevel" transform="matrix(3.125,0,0,3.125,-367.188,-992.188)"
font-family="Nimbus Sans L" font-size="12.5" font-weight="400" font-style="normal" 
clip-path="url(#clip1515)" >
<polyline fill="none" vector-effect="none" points="155,332 146,332 " />
</g>

<g fill="none" stroke="#000000" stroke-opacity="1" stroke-width="1" stroke-linecap="square" stroke-linejoin="bevel" transform="matrix(3.125,0,0,3.125,-367.188,-992.188)"
font-family="Nimbus Sans L" font-size="12.5" font-weight="400" font-style="normal" 
clip-path="url(#clip1515)" >
<polyline fill="none" vector-effect="none" points="146,332 146,331 " />
</g>

<g fill="none" stroke="#000000" stroke-opacity="1" stroke-width="1" stroke-linecap="square" stroke-linejoin="bevel" transform="matrix(3.125,0,0,3.125,-367.188,-992.188)"
font-family="Nimbus Sans L" font-size="12.5" font-weight="400" font-style="normal" 
clip-path="url(#clip1515)" >
<polyline fill="none" vector-effect="none" points="146,339 156,349 " />
</g>

<g fill="none" stroke="#000000" stroke-opacity="1" stroke-width="1" stroke-linecap="square" stroke-linejoin="bevel" transform="matrix(3.125,0,0,3.125,-367.188,-992.188)"
font-family="Nimbus Sans L" font-size="12.5" font-weight="400" font-style="normal" 
clip-path="url(#clip1515)" >
<polyline fill="none" vector-effect="none" points="156,349 156,345 " />
</g>

<g fill="none" stroke="#000000" stroke-opacity="1" stroke-width="1" stroke-linecap="square" stroke-linejoin="bevel" transform="matrix(3.125,0,0,3.125,-367.188,-992.188)"
font-family="Nimbus Sans L" font-size="12.5" font-weight="400" font-style="normal" 
clip-path="url(#clip1515)" >
<polyline fill="none" vector-effect="none" points="156,345 156,350 " />
</g>

<g fill="none" stroke="#000000" stroke-opacity="1" stroke-width="1" stroke-linecap="square" stroke-linejoin="bevel" transform="matrix(3.125,0,0,3.125,-367.188,-992.188)"
font-family="Nimbus Sans L" font-size="12.5" font-weight="400" font-style="normal" 
clip-path="url(#clip1515)" >
<polyline fill="none" vector-effect="none" points="156,350 152,349 " />
</g>

<g fill="none" stroke="#000000" stroke-opacity="1" stroke-width="1" stroke-linecap="square" stroke-linejoin="bevel" transform="matrix(3.125,0,0,3.125,-367.188,-992.188)"
font-family="Nimbus Sans L" font-size="12.5" font-weight="400" font-style="normal" 
clip-path="url(#clip1515)" >
<polyline fill="none" vector-effect="none" points="152,349 155,349 " />
</g>

<g fill="none" stroke="#000000" stroke-opacity="1" stroke-width="1" stroke-linecap="square" stroke-linejoin="bevel" transform="matrix(3.125,0,0,3.125,-367.188,-992.188)"
font-family="Nimbus Sans L" font-size="12.5" font-weight="400" font-style="normal" 
clip-path="url(#clip1515)" >
<polyline fill="none" vector-effect="none" points="155,349 145,340 " />
</g>

<g fill="none" stroke="#000000" stroke-opacity="1" stroke-width="1" stroke-linecap="square" stroke-linejoin="bevel" transform="matrix(3.125,0,0,3.125,-367.188,-992.188)"
font-family="Nimbus Sans L" font-size="12.5" font-weight="400" font-style="normal" 
clip-path="url(#clip1515)" >
<polyline fill="none" vector-effect="none" points="145,340 146,339 " />
</g>

<g fill="none" stroke="#000000" stroke-opacity="1" stroke-width="1" stroke-linecap="square" stroke-linejoin="bevel" transform="matrix(3.125,0,0,3.125,-367.188,-992.188)"
font-family="Nimbus Sans L" font-size="12.5" font-weight="400" font-style="normal" 
clip-path="url(#clip1515)" >
<polyline fill="none" vector-effect="none" points="146,350 156,367 " />
</g>

<g fill="none" stroke="#000000" stroke-opacity="1" stroke-width="1" stroke-linecap="square" stroke-linejoin="bevel" transform="matrix(3.125,0,0,3.125,-367.188,-992.188)"
font-family="Nimbus Sans L" font-size="12.5" font-weight="400" font-style="normal" 
clip-path="url(#clip1515)" >
<polyline fill="none" vector-effect="none" points="156,367 156,363 " />
</g>

<g fill="none" stroke="#000000" stroke-opacity="1" stroke-width="1" stroke-linecap="square" stroke-linejoin="bevel" transform="matrix(3.125,0,0,3.125,-367.188,-992.188)"
font-family="Nimbus Sans L" font-size="12.5" font-weight="400" font-style="normal" 
clip-path="url(#clip1515)" >
<polyline fill="none" vector-effect="none" points="156,363 156,369 " />
</g>

<g fill="none" stroke="#000000" stroke-opacity="1" stroke-width="1" stroke-linecap="square" stroke-linejoin="bevel" transform="matrix(3.125,0,0,3.125,-367.188,-992.188)"
font-family="Nimbus Sans L" font-size="12.5" font-weight="400" font-style="normal" 
clip-path="url(#clip1515)" >
<polyline fill="none" vector-effect="none" points="156,369 151,365 " />
</g>

<g fill="none" stroke="#000000" stroke-opacity="1" stroke-width="1" stroke-linecap="square" stroke-linejoin="bevel" transform="matrix(3.125,0,0,3.125,-367.188,-992.188)"
font-family="Nimbus Sans L" font-size="12.5" font-weight="400" font-style="normal" 
clip-path="url(#clip1515)" >
<polyline fill="none" vector-effect="none" points="151,365 155,367 " />
</g>

<g fill="none" stroke="#000000" stroke-opacity="1" stroke-width="1" stroke-linecap="square" stroke-linejoin="bevel" transform="matrix(3.125,0,0,3.125,-367.188,-992.188)"
font-family="Nimbus Sans L" font-size="12.5" font-weight="400" font-style="normal" 
clip-path="url(#clip1515)" >
<polyline fill="none" vector-effect="none" points="155,367 145,350 " />
</g>

<g fill="none" stroke="#000000" stroke-opacity="1" stroke-width="1" stroke-linecap="square" stroke-linejoin="bevel" transform="matrix(3.125,0,0,3.125,-367.188,-992.188)"
font-family="Nimbus Sans L" font-size="12.5" font-weight="400" font-style="normal" 
clip-path="url(#clip1515)" >
<polyline fill="none" vector-effect="none" points="145,350 146,350 " />
</g>

<g fill="none" stroke="#000000" stroke-opacity="1" stroke-width="1" stroke-linecap="square" stroke-linejoin="bevel" transform="matrix(3.125,0,0,3.125,-367.188,-992.188)"
font-family="Nimbus Sans L" font-size="12.5" font-weight="400" font-style="normal" 
clip-path="url(#clip1515)" >
<polyline fill="none" vector-effect="none" points="146,361 152,375 " />
</g>

<g fill="none" stroke="#000000" stroke-opacity="1" stroke-width="1" stroke-linecap="square" stroke-linejoin="bevel" transform="matrix(3.125,0,0,3.125,-367.188,-992.188)"
font-family="Nimbus Sans L" font-size="12.5" font-weight="400" font-style="normal" 
clip-path="url(#clip1515)" >
<polyline fill="none" vector-effect="none" points="152,375 153,371 " />
</g>

<g fill="none" stroke="#000000" stroke-opacity="1" stroke-width="1" stroke-linecap="square" stroke-linejoin="bevel" transform="matrix(3.125,0,0,3.125,-367.188,-992.188)"
font-family="Nimbus Sans L" font-size="12.5" font-weight="400" font-style="normal" 
clip-path="url(#clip1515)" >
<polyline fill="none" vector-effect="none" points="153,371 152,376 " />
</g>

<g fill="none" stroke="#000000" stroke-opacity="1" stroke-width="1" stroke-linecap="square" stroke-linejoin="bevel" transform="matrix(3.125,0,0,3.125,-367.188,-992.188)"
font-family="Nimbus Sans L" font-size="12.5" font-weight="400" font-style="normal" 
clip-path="url(#clip1515)" >
<polyline fill="none" vector-effect="none" points="152,376 148,374 " />
</g>

<g fill="none" stroke="#000000" stroke-opacity="1" stroke-width="1" stroke-linecap="square" stroke-linejoin="bevel" transform="matrix(3.125,0,0,3.125,-367.188,-992.188)"
font-family="Nimbus Sans L" font-size="12.5" font-weight="400" font-style="normal" 
clip-path="url(#clip1515)" >
<polyline fill="none" vector-effect="none" points="148,374 151,375 " />
</g>

<g fill="none" stroke="#000000" stroke-opacity="1" stroke-width="1" stroke-linecap="square" stroke-linejoin="bevel" transform="matrix(3.125,0,0,3.125,-367.188,-992.188)"
font-family="Nimbus Sans L" font-size="12.5" font-weight="400" font-style="normal" 
clip-path="url(#clip1515)" >
<polyline fill="none" vector-effect="none" points="151,375 145,361 " />
</g>

<g fill="none" stroke="#000000" stroke-opacity="1" stroke-width="1" stroke-linecap="square" stroke-linejoin="bevel" transform="matrix(3.125,0,0,3.125,-367.188,-992.188)"
font-family="Nimbus Sans L" font-size="12.5" font-weight="400" font-style="normal" 
clip-path="url(#clip1515)" >
<polyline fill="none" vector-effect="none" points="145,361 146,361 " />
</g>

<g fill="#404040" fill-opacity="1" stroke="#404040" stroke-opacity="1" stroke-width="1" stroke-linecap="square" stroke-linejoin="bevel" transform="matrix(3.125,0,0,3.125,-368.75,-993.75)"
font-family="Nimbus Sans L" font-size="12.5" font-weight="400" font-style="normal" 
clip-path="url(#clip1515)" >
<path vector-effect="none" fill-rule="evenodd" d="M146,331 L155,331 L154,328 L156,331 L154,334 L155,332 L146,332 L146,331z "/>
</g>

<g fill="#404040" fill-opacity="1" stroke="#404040" stroke-opacity="1" stroke-width="1" stroke-linecap="square" stroke-linejoin="bevel" transform="matrix(3.125,0,0,3.125,-368.75,-993.75)"
font-family="Nimbus Sans L" font-size="12.5" font-weight="400" font-style="normal" 
clip-path="url(#clip1515)" >
<path vector-effect="none" fill-rule="evenodd" d="M146,339 L156,349 L156,345 L156,350 L152,349 L155,349 L145,340 L146,339z "/>
</g>

<g fill="#404040" fill-opacity="1" stroke="#404040" stroke-opacity="1" stroke-width="1" stroke-linecap="square" stroke-linejoin="bevel" transform="matrix(3.125,0,0,3.125,-368.75,-993.75)"
font-family="Nimbus Sans L" font-size="12.5" font-weight="400" font-style="normal" 
clip-path="url(#clip1515)" >
<path vector-effect="none" fill-rule="evenodd" d="M146,350 L156,367 L156,363 L156,369 L151,365 L155,367 L145,350 L146,350z "/>
</g>

<g fill="#404040" fill-opacity="1" stroke="#404040" stroke-opacity="1" stroke-width="1" stroke-linecap="square" stroke-linejoin="bevel" transform="matrix(3.125,0,0,3.125,-368.75,-993.75)"
font-family="Nimbus Sans L" font-size="12.5" font-weight="400" font-style="normal" 
clip-path="url(#clip1515)" >
<path vector-effect="none" fill-rule="evenodd" d="M146,361 L152,375 L153,371 L152,376 L148,374 L151,375 L145,361 L146,361z "/>
</g>

<g fill="#404040" fill-opacity="1" stroke="#000000" stroke-opacity="1" stroke-width="1" stroke-linecap="square" stroke-linejoin="bevel" transform="matrix(3.125,0,0,3.125,50,28.125)"
font-family="Liberation Sans" font-size="12" font-weight="400" font-style="normal" 
clip-path="url(#clip1516)" >
<defs><clipPath id="clip1516"><path vector-effect="none" fill-rule="evenodd" d="M-14,-7 L46,-7 L46,53 L-14,53 L-14,-7z "/>
</clipPath></defs></g>

<g fill="#404040" fill-opacity="1" stroke="#000000" stroke-opacity="1" stroke-width="1" stroke-linecap="square" stroke-linejoin="bevel" transform="matrix(3.125,0,0,3.125,50,28.125)"
font-family="Liberation Sans" font-size="12" font-weight="400" font-style="normal" 
clip-path="url(#clip1516)" >
<text textLength="7" fill="#000000" fill-opacity="1" stroke="none" xml:space="preserve" x="0" y="4" font-family="Liberation Sans" font-size="12" font-weight="400" font-style="normal" 
 >1</text>
</g>

<g fill="#404040" fill-opacity="1" stroke="#000000" stroke-opacity="1" stroke-width="1" stroke-linecap="square" stroke-linejoin="bevel" transform="matrix(3.125,0,0,3.125,50,28.125)"
font-family="Liberation Sans" font-size="12" font-weight="400" font-style="normal" 
clip-path="url(#clip1516)" >
</g>

<g fill="#404040" fill-opacity="1" stroke="#000000" stroke-opacity="1" stroke-width="1" stroke-linecap="square" stroke-linejoin="bevel" transform="matrix(3.125,0,0,3.125,50,65.625)"
font-family="Liberation Sans" font-size="12" font-weight="400" font-style="normal" 
clip-path="url(#clip1517)" >
<defs><clipPath id="clip1517"><path vector-effect="none" fill-rule="evenodd" d="M-14,-19 L46,-19 L46,41 L-14,41 L-14,-19z "/>
</clipPath></defs></g>

<g fill="#404040" fill-opacity="1" stroke="#000000" stroke-opacity="1" stroke-width="1" stroke-linecap="square" stroke-linejoin="bevel" transform="matrix(3.125,0,0,3.125,50,65.625)"
font-family="Liberation Sans" font-size="12" font-weight="400" font-style="normal" 
clip-path="url(#clip1517)" >
<text textLength="7" fill="#000000" fill-opacity="1" stroke="none" xml:space="preserve" x="0" y="4" font-family="Liberation Sans" font-size="12" font-weight="400" font-style="normal" 
 >2</text>
</g>

<g fill="#404040" fill-opacity="1" stroke="#000000" stroke-opacity="1" stroke-width="1" stroke-linecap="square" stroke-linejoin="bevel" transform="matrix(3.125,0,0,3.125,50,65.625)"
font-family="Liberation Sans" font-size="12" font-weight="400" font-style="normal" 
clip-path="url(#clip1517)" >
</g>

<g fill="#404040" fill-opacity="1" stroke="#000000" stroke-opacity="1" stroke-width="1" stroke-linecap="square" stroke-linejoin="bevel" transform="matrix(3.125,0,0,3.125,50,103.125)"
font-family="Liberation Sans" font-size="12" font-weight="400" font-style="normal" 
clip-path="url(#clip1518)" >
<defs><clipPath id="clip1518"><path vector-effect="none" fill-rule="evenodd" d="M-14,-31 L46,-31 L46,29 L-14,29 L-14,-31z "/>
</clipPath></defs></g>

<g fill="#404040" fill-opacity="1" stroke="#000000" stroke-opacity="1" stroke-width="1" stroke-linecap="square" stroke-linejoin="bevel" transform="matrix(3.125,0,0,3.125,50,103.125)"
font-family="Liberation Sans" font-size="12" font-weight="400" font-style="normal" 
clip-path="url(#clip1518)" >
<text textLength="7" fill="#000000" fill-opacity="1" stroke="none" xml:space="preserve" x="0" y="4" font-family="Liberation Sans" font-size="12" font-weight="400" font-style="normal" 
 >3</text>
</g>

<g fill="#404040" fill-opacity="1" stroke="#000000" stroke-opacity="1" stroke-width="1" stroke-linecap="square" stroke-linejoin="bevel" transform="matrix(3.125,0,0,3.125,50,103.125)"
font-family="Liberation Sans" font-size="12" font-weight="400" font-style="normal" 
clip-path="url(#clip1518)" >
</g>

<g fill="#404040" fill-opacity="1" stroke="#000000" stroke-opacity="1" stroke-width="1" stroke-linecap="square" stroke-linejoin="bevel" transform="matrix(3.125,0,0,3.125,50,140.625)"
font-family="Liberation Sans" font-size="12" font-weight="400" font-style="normal" 
clip-path="url(#clip1519)" >
<defs><clipPath id="clip1519"><path vector-effect="none" fill-rule="evenodd" d="M-14,-43 L46,-43 L46,17 L-14,17 L-14,-43z "/>
</clipPath></defs></g>

<g fill="#404040" fill-opacity="1" stroke="#000000" stroke-opacity="1" stroke-width="1" stroke-linecap="square" stroke-linejoin="bevel" transform="matrix(3.125,0,0,3.125,50,140.625)"
font-family="Liberation Sans" font-size="12" font-weight="400" font-style="normal" 
clip-path="url(#clip1519)" >
<text textLength="7" fill="#000000" fill-opacity="1" stroke="none" xml:space="preserve" x="0" y="4" font-family="Liberation Sans" font-size="12" font-weight="400" font-style="normal" 
 >4</text>
</g>

<g fill="#404040" fill-opacity="1" stroke="#000000" stroke-opacity="1" stroke-width="1" stroke-linecap="square" stroke-linejoin="bevel" transform="matrix(3.125,0,0,3.125,50,140.625)"
font-family="Liberation Sans" font-size="12" font-weight="400" font-style="normal" 
clip-path="url(#clip1519)" >
</g>

<g fill="#404040" fill-opacity="1" stroke="#000000" stroke-opacity="1" stroke-width="1" stroke-linecap="square" stroke-linejoin="bevel" transform="matrix(3.125,0,0,3.125,50,178.125)"
font-family="Liberation Sans" font-size="12" font-weight="400" font-style="normal" 
clip-path="url(#clip1520)" >
<defs><clipPath id="clip1520"><path vector-effect="none" fill-rule="evenodd" d="M-14,-55 L46,-55 L46,5 L-14,5 L-14,-55z "/>
</clipPath></defs></g>

<g fill="#404040" fill-opacity="1" stroke="#000000" stroke-opacity="1" stroke-width="1" stroke-linecap="square" stroke-linejoin="bevel" transform="matrix(3.125,0,0,3.125,50,178.125)"
font-family="Liberation Sans" font-size="12" font-weight="400" font-style="normal" 
clip-path="url(#clip1520)" >
<text textLength="7" fill="#000000" fill-opacity="1" stroke="none" xml:space="preserve" x="0" y="4" font-family="Liberation Sans" font-size="12" font-weight="400" font-style="normal" 
 >5</text>
</g>

<g fill="#404040" fill-opacity="1" stroke="#000000" stroke-opacity="1" stroke-width="1" stroke-linecap="square" stroke-linejoin="bevel" transform="matrix(3.125,0,0,3.125,50,178.125)"
font-family="Liberation Sans" font-size="12" font-weight="400" font-style="normal" 
clip-path="url(#clip1520)" >
</g>

<g fill="#404040" fill-opacity="1" stroke="#000000" stroke-opacity="1" stroke-width="1" stroke-linecap="square" stroke-linejoin="bevel" transform="matrix(3.125,0,0,3.125,125,28.125)"
font-family="Liberation Sans" font-size="12" font-weight="400" font-style="normal" 
clip-path="url(#clip1521)" >
<defs><clipPath id="clip1521"><path vector-effect="none" fill-rule="evenodd" d="M-38,-7 L22,-7 L22,53 L-38,53 L-38,-7z "/>
</clipPath></defs></g>

<g fill="#404040" fill-opacity="1" stroke="#000000" stroke-opacity="1" stroke-width="1" stroke-linecap="square" stroke-linejoin="bevel" transform="matrix(3.125,0,0,3.125,125,28.125)"
font-family="Liberation Sans" font-size="12" font-weight="400" font-style="normal" 
clip-path="url(#clip1521)" >
<text textLength="7" fill="#000000" fill-opacity="1" stroke="none" xml:space="preserve" x="0" y="4" font-family="Liberation Sans" font-size="12" font-weight="400" font-style="normal" 
 >1</text>
</g>

<g fill="#404040" fill-opacity="1" stroke="#000000" stroke-opacity="1" stroke-width="1" stroke-linecap="square" stroke-linejoin="bevel" transform="matrix(3.125,0,0,3.125,125,28.125)"
font-family="Liberation Sans" font-size="12" font-weight="400" font-style="normal" 
clip-path="url(#clip1521)" >
</g>

<g fill="#404040" fill-opacity="1" stroke="#000000" stroke-opacity="1" stroke-width="1" stroke-linecap="square" stroke-linejoin="bevel" transform="matrix(3.125,0,0,3.125,125,65.625)"
font-family="Liberation Sans" font-size="12" font-weight="400" font-style="normal" 
clip-path="url(#clip1522)" >
<defs><clipPath id="clip1522"><path vector-effect="none" fill-rule="evenodd" d="M-38,-19 L22,-19 L22,41 L-38,41 L-38,-19z "/>
</clipPath></defs></g>

<g fill="#404040" fill-opacity="1" stroke="#000000" stroke-opacity="1" stroke-width="1" stroke-linecap="square" stroke-linejoin="bevel" transform="matrix(3.125,0,0,3.125,125,65.625)"
font-family="Liberation Sans" font-size="12" font-weight="400" font-style="normal" 
clip-path="url(#clip1522)" >
<text textLength="7" fill="#000000" fill-opacity="1" stroke="none" xml:space="preserve" x="0" y="4" font-family="Liberation Sans" font-size="12" font-weight="400" font-style="normal" 
 >1</text>
</g>

<g fill="#404040" fill-opacity="1" stroke="#000000" stroke-opacity="1" stroke-width="1" stroke-linecap="square" stroke-linejoin="bevel" transform="matrix(3.125,0,0,3.125,125,65.625)"
font-family="Liberation Sans" font-size="12" font-weight="400" font-style="normal" 
clip-path="url(#clip1522)" >
</g>

<g fill="#404040" fill-opacity="1" stroke="#000000" stroke-opacity="1" stroke-width="1" stroke-linecap="square" stroke-linejoin="bevel" transform="matrix(3.125,0,0,3.125,125,103.125)"
font-family="Liberation Sans" font-size="12" font-weight="400" font-style="normal" 
clip-path="url(#clip1523)" >
<defs><clipPath id="clip1523"><path vector-effect="none" fill-rule="evenodd" d="M-38,-31 L22,-31 L22,29 L-38,29 L-38,-31z "/>
</clipPath></defs></g>

<g fill="#404040" fill-opacity="1" stroke="#000000" stroke-opacity="1" stroke-width="1" stroke-linecap="square" stroke-linejoin="bevel" transform="matrix(3.125,0,0,3.125,125,103.125)"
font-family="Liberation Sans" font-size="12" font-weight="400" font-style="normal" 
clip-path="url(#clip1523)" >
<text textLength="7" fill="#000000" fill-opacity="1" stroke="none" xml:space="preserve" x="0" y="4" font-family="Liberation Sans" font-size="12" font-weight="400" font-style="normal" 
 >2</text>
</g>

<g fill="#404040" fill-opacity="1" stroke="#000000" stroke-opacity="1" stroke-width="1" stroke-linecap="square" stroke-linejoin="bevel" transform="matrix(3.125,0,0,3.125,125,103.125)"
font-family="Liberation Sans" font-size="12" font-weight="400" font-style="normal" 
clip-path="url(#clip1523)" >
</g>

<g fill="#404040" fill-opacity="1" stroke="#000000" stroke-opacity="1" stroke-width="1" stroke-linecap="square" stroke-linejoin="bevel" transform="matrix(3.125,0,0,3.125,125,140.625)"
font-family="Liberation Sans" font-size="12" font-weight="400" font-style="normal" 
clip-path="url(#clip1524)" >
<defs><clipPath id="clip1524"><path vector-effect="none" fill-rule="evenodd" d="M-38,-43 L22,-43 L22,17 L-38,17 L-38,-43z "/>
</clipPath></defs></g>

<g fill="#404040" fill-opacity="1" stroke="#000000" stroke-opacity="1" stroke-width="1" stroke-linecap="square" stroke-linejoin="bevel" transform="matrix(3.125,0,0,3.125,125,140.625)"
font-family="Liberation Sans" font-size="12" font-weight="400" font-style="normal" 
clip-path="url(#clip1524)" >
<text textLength="7" fill="#000000" fill-opacity="1" stroke="none" xml:space="preserve" x="0" y="4" font-family="Liberation Sans" font-size="12" font-weight="400" font-style="normal" 
 >2</text>
</g>

<g fill="#404040" fill-opacity="1" stroke="#000000" stroke-opacity="1" stroke-width="1" stroke-linecap="square" stroke-linejoin="bevel" transform="matrix(3.125,0,0,3.125,125,140.625)"
font-family="Liberation Sans" font-size="12" font-weight="400" font-style="normal" 
clip-path="url(#clip1524)" >
</g>

<g fill="#404040" fill-opacity="1" stroke="#000000" stroke-opacity="1" stroke-width="1" stroke-linecap="square" stroke-linejoin="bevel" transform="matrix(3.125,0,0,3.125,125,178.125)"
font-family="Liberation Sans" font-size="12" font-weight="400" font-style="normal" 
clip-path="url(#clip1525)" >
<defs><clipPath id="clip1525"><path vector-effect="none" fill-rule="evenodd" d="M-38,-55 L22,-55 L22,5 L-38,5 L-38,-55z "/>
</clipPath></defs></g>

<g fill="#404040" fill-opacity="1" stroke="#000000" stroke-opacity="1" stroke-width="1" stroke-linecap="square" stroke-linejoin="bevel" transform="matrix(3.125,0,0,3.125,125,178.125)"
font-family="Liberation Sans" font-size="12" font-weight="400" font-style="normal" 
clip-path="url(#clip1525)" >
<text textLength="7" fill="#000000" fill-opacity="1" stroke="none" xml:space="preserve" x="0" y="4" font-family="Liberation Sans" font-size="12" font-weight="400" font-style="normal" 
 >3</text>
</g>

<g fill="#404040" fill-opacity="1" stroke="#000000" stroke-opacity="1" stroke-width="1" stroke-linecap="square" stroke-linejoin="bevel" transform="matrix(3.125,0,0,3.125,125,178.125)"
font-family="Liberation Sans" font-size="12" font-weight="400" font-style="normal" 
clip-path="url(#clip1525)" >
</g>

<g fill="#404040" fill-opacity="1" stroke="#000000" stroke-opacity="1" stroke-width="1" stroke-linecap="square" stroke-linejoin="bevel" transform="matrix(3.125,0,0,3.125,125,178.125)"
font-family="Liberation Sans" font-size="12" font-weight="400" font-style="normal" 
clip-path="url(#clip1526)" >
<defs><clipPath id="clip1526"><path vector-effect="none" fill-rule="evenodd" d="M-2,-2 L62,-2 L62,62 L-2,62 L-2,-2z "/>
</clipPath></defs></g>

<g fill="#404040" fill-opacity="1" stroke="#000000" stroke-opacity="1" stroke-width="1" stroke-linecap="square" stroke-linejoin="bevel" transform="matrix(1,0,0,1,0,0)"
font-family="Liberation Sans" font-size="12" font-weight="400" font-style="normal" 
clip-path="url(#clip1526)" >
</g>

<g fill="none" stroke="#000000" stroke-opacity="1" stroke-width="1" stroke-linecap="square" stroke-linejoin="bevel" transform="matrix(3.125,0,0,3.125,6.25,6.25)"
font-family="Nimbus Sans L" font-size="12.5" font-weight="400" font-style="normal" 
clip-path="url(#clip1526)" >
</g>

<g fill="none" stroke="#000000" stroke-opacity="1" stroke-width="1" stroke-linecap="square" stroke-linejoin="bevel" transform="matrix(3.125,0,0,3.125,6.25,6.25)"
font-family="Nimbus Sans L" font-size="12.5" font-weight="400" font-style="normal" 
clip-path="url(#clip1526)" >
</g>

<g fill="none" stroke="#000000" stroke-opacity="1" stroke-width="0.633957" stroke-linecap="butt" stroke-linejoin="miter" stroke-miterlimit="2" transform="matrix(3.125,0,0,3.125,6.25,6.25)"
font-family="Nimbus Sans L" font-size="12.5" font-weight="400" font-style="normal" 
clip-path="url(#clip1526)" >
<path vector-effect="none" fill-rule="evenodd" d="M0,0 L60,0 L60,60 L0,60 L0,0z "/>
</g>

<g fill="none" stroke="#000000" stroke-opacity="1" stroke-width="1" stroke-linecap="square" stroke-linejoin="bevel" transform="matrix(3.125,0,0,3.125,6.25,6.25)"
font-family="Nimbus Sans L" font-size="12.5" font-weight="400" font-style="normal" 
clip-path="url(#clip1526)" >
</g>

<g fill="none" stroke="#000000" stroke-opacity="1" stroke-width="1" stroke-linecap="square" stroke-linejoin="bevel" transform="matrix(1,0,0,1,0,0)"
font-family="Nimbus Sans L" font-size="12.5" font-weight="400" font-style="normal" 
>
</g>

<g fill="none" stroke="#000000" stroke-opacity="1" stroke-width="1" stroke-linecap="square" stroke-linejoin="bevel" transform="matrix(1,0,0,1,0,0)"
font-family="Nimbus Sans L" font-size="12.5" font-weight="400" font-style="normal" 
>
</g>

<g fill="none" stroke="#000000" stroke-opacity="1" stroke-width="1" stroke-linecap="square" stroke-linejoin="bevel" transform="matrix(1,0,0,1,0,0)"
font-family="Nimbus Sans L" font-size="12.5" font-weight="400" font-style="normal" 
clip-path="url(#clip1527)" >
<defs><clipPath id="clip1527"><path vector-effect="non-scaling-stroke" fill-rule="evenodd" d="M0,0 L200,0 L200,200 L0,200 L0,0z "/>
</clipPath></defs></g>

<g fill="none" stroke="#000000" stroke-opacity="1" stroke-width="1" stroke-linecap="square" stroke-linejoin="bevel" transform="matrix(1,0,0,1,0,0)"
font-family="Nimbus Sans L" font-size="12.5" font-weight="400" font-style="normal" 
>
</g>

<g fill="none" stroke="#000000" stroke-opacity="1" stroke-width="1" stroke-linecap="square" stroke-linejoin="bevel" transform="matrix(1,0,0,1,0,0)"
font-family="Nimbus Sans L" font-size="12.5" font-weight="400" font-style="normal" 
>
</g>

<g fill="none" stroke="#000000" stroke-opacity="1" stroke-width="1" stroke-linecap="square" stroke-linejoin="bevel" transform="matrix(1,0,0,1,0,0)"
font-family="Nimbus Sans L" font-size="12.5" font-weight="400" font-style="normal" 
clip-path="url(#clip1528)" >
<defs><clipPath id="clip1528"><path vector-effect="non-scaling-stroke" fill-rule="evenodd" d="M0,0 L1,0 L1,1 L0,1 L0,0z "/>
</clipPath></defs></g>

<g fill="none" stroke="#000000" stroke-opacity="1" stroke-width="1" stroke-linecap="square" stroke-linejoin="bevel" transform="matrix(1,0,0,1,0,0)"
font-family="Nimbus Sans L" font-size="12.5" font-weight="400" font-style="normal" 
>
</g>

<g fill="none" stroke="#000000" stroke-opacity="1" stroke-width="1" stroke-linecap="square" stroke-linejoin="bevel" transform="matrix(1,0,0,1,0,0)"
font-family="Nimbus Sans L" font-size="12.5" font-weight="400" font-style="normal" 
>
</g>
</g>
</svg>
