<?xml version="1.0" encoding="UTF-8" standalone="no"?>
<svg width="70.5556mm" height="37.3944mm"
 viewBox="0 0 200 106"
 xmlns="http://www.w3.org/2000/svg" xmlns:xlink="http://www.w3.org/1999/xlink"  version="1.2" baseProfile="tiny">
<defs>
</defs>
<g fill="none" stroke="black" stroke-width="1" fill-rule="evenodd" stroke-linecap="square" stroke-linejoin="bevel" >

<g fill="#ffffff" fill-opacity="0" stroke="none" transform="matrix(1,0,0,1,0,0)"
font-family="Helvetica" font-size="12" font-weight="400" font-style="normal" 
>
<path vector-effect="non-scaling-stroke" fill-rule="evenodd" d="M0,0 L200,0 L200,106 L0,106 L0,0z "/>
</g>

<g fill="none" stroke="#000000" stroke-opacity="1" stroke-width="1" stroke-linecap="square" stroke-linejoin="bevel" transform="matrix(1,0,0,1,0,0)"
font-family="Helvetica" font-size="12" font-weight="400" font-style="normal" 
>
</g>

<g fill="none" stroke="#000000" stroke-opacity="1" stroke-width="1" stroke-linecap="square" stroke-linejoin="bevel" transform="matrix(1,0,0,1,0,0)"
font-family="Helvetica" font-size="12" font-weight="400" font-style="normal" 
clip-path="url(#clip153)" >
<defs><clipPath id="clip153"><path vector-effect="non-scaling-stroke" fill-rule="evenodd" d="M0,0 L200,0 L200,106.087 L0,106.087 L0,0z "/>
</clipPath></defs></g>

<g fill="none" stroke="#000000" stroke-opacity="1" stroke-width="1" stroke-linecap="square" stroke-linejoin="bevel" transform="matrix(1.73913,0,0,1.73913,3.47826,3.47826)"
font-family="Helvetica" font-size="12" font-weight="400" font-style="normal" 
clip-path="url(#clip154)" >
<defs><clipPath id="clip154"><path vector-effect="non-scaling-stroke" fill-rule="evenodd" d="M-2,-2 L113,-2 L113,59 L-2,59 L-2,-2z "/>
</clipPath></defs></g>

<g fill="#61bdfc" fill-opacity="1" stroke="none" transform="matrix(1.73913,0,0,1.73913,3.47826,3.47826)"
font-family="Helvetica" font-size="12" font-weight="400" font-style="normal" 
clip-path="url(#clip154)" >
<path vector-effect="none" fill-rule="evenodd" d="M0,0 L111,0 L111,57 L0,57 L0,0z "/>
</g>

<g fill="none" stroke="#000000" stroke-opacity="1" stroke-width="1" stroke-linecap="square" stroke-linejoin="bevel" transform="matrix(1.73913,0,0,1.73913,3.47826,3.47826)"
font-family="Helvetica" font-size="12" font-weight="400" font-style="normal" 
clip-path="url(#clip154)" >
</g>

<g fill="none" stroke="#000000" stroke-opacity="1" stroke-width="1" stroke-linecap="square" stroke-linejoin="bevel" transform="matrix(1.73913,0,0,1.73913,3.47826,3.47826)"
font-family="Helvetica" font-size="12" font-weight="400" font-style="normal" 
clip-path="url(#clip154)" >
</g>

<g fill="none" stroke="#000000" stroke-opacity="1" stroke-width="1" stroke-linecap="square" stroke-linejoin="bevel" transform="matrix(1.73913,0,0,1.73913,3.47826,3.47826)"
font-family="Helvetica" font-size="12" font-weight="400" font-style="normal" 
clip-path="url(#clip155)" >
<defs><clipPath id="clip155"><path vector-effect="non-scaling-stroke" fill-rule="evenodd" d="M0,0 L111,0 L111,57 L0,57 L0,0z "/>
</clipPath></defs></g>

<g fill="none" stroke="#000000" stroke-opacity="1" stroke-width="1" stroke-linecap="square" stroke-linejoin="bevel" transform="matrix(1.73913,0,0,1.73913,99.1304,52.1739)"
font-family="Liberation Sans" font-size="9" font-weight="700" font-style="normal" 
clip-path="url(#clip156)" >
<defs><clipPath id="clip156"><path vector-effect="none" fill-rule="evenodd" d="M-55,-28 L56,-28 L56,29 L-55,29 L-55,-28z "/>
</clipPath></defs></g>

<g fill="none" stroke="#000000" stroke-opacity="1" stroke-width="1" stroke-linecap="square" stroke-linejoin="bevel" transform="matrix(2.31884,0,0,2.31884,99.1304,52.1739)"
font-family="Liberation Sans" font-size="9" font-weight="700" font-style="normal" 
clip-path="url(#clip157)" >
<defs><clipPath id="clip157"><path vector-effect="none" fill-rule="evenodd" d="M-41,-21 L42,-21 L42,22 L-41,22 L-41,-21z "/>
</clipPath></defs><text textLength="44.4219" fill="#000000" fill-opacity="1" stroke="none" xml:space="preserve" x="-22.5" y="3" font-family="Liberation Sans" font-size="9" font-weight="700" font-style="normal" 
 >AUTOSAR</text>
</g>

<g fill="none" stroke="#000000" stroke-opacity="1" stroke-width="1" stroke-linecap="square" stroke-linejoin="bevel" transform="matrix(1.73913,0,0,1.73913,99.1304,52.1739)"
font-family="Liberation Sans" font-size="9" font-weight="700" font-style="normal" 
clip-path="url(#clip158)" >
<defs><clipPath id="clip158"><path vector-effect="none" fill-rule="evenodd" d="M-55,-28 L56,-28 L56,29 L-55,29 L-55,-28z "/>
</clipPath></defs></g>

<g fill="none" stroke="#000000" stroke-opacity="1" stroke-width="1" stroke-linecap="square" stroke-linejoin="bevel" transform="matrix(1.30435,0,0,1.30435,99.1304,52.1739)"
font-family="Liberation Sans" font-size="9" font-weight="700" font-style="normal" 
clip-path="url(#clip159)" >
<defs><clipPath id="clip159"><path vector-effect="none" fill-rule="evenodd" d="M-2,-2 L113,-2 L113,59 L-2,59 L-2,-2z "/>
</clipPath></defs></g>

<g fill="none" stroke="#000000" stroke-opacity="1" stroke-width="1" stroke-linecap="square" stroke-linejoin="bevel" transform="matrix(1,0,0,1,0,0)"
font-family="Liberation Sans" font-size="9" font-weight="700" font-style="normal" 
clip-path="url(#clip159)" >
</g>

<g fill="none" stroke="#000000" stroke-opacity="1" stroke-width="1" stroke-linecap="square" stroke-linejoin="bevel" transform="matrix(1.73913,0,0,1.73913,3.47826,3.47826)"
font-family="Helvetica" font-size="12" font-weight="400" font-style="normal" 
clip-path="url(#clip159)" >
</g>

<g fill="none" stroke="#000000" stroke-opacity="1" stroke-width="1" stroke-linecap="square" stroke-linejoin="bevel" transform="matrix(1.73913,0,0,1.73913,3.47826,3.47826)"
font-family="Helvetica" font-size="12" font-weight="400" font-style="normal" 
clip-path="url(#clip159)" >
</g>

<g fill="none" stroke="#000000" stroke-opacity="1" stroke-width="0.801433" stroke-linecap="butt" stroke-linejoin="miter" stroke-miterlimit="2" transform="matrix(1.73913,0,0,1.73913,3.47826,3.47826)"
font-family="Helvetica" font-size="12" font-weight="400" font-style="normal" 
clip-path="url(#clip159)" >
<path vector-effect="none" fill-rule="evenodd" d="M0,0 L111,0 L111,57 L0,57 L0,0z "/>
</g>

<g fill="none" stroke="#000000" stroke-opacity="1" stroke-width="1" stroke-linecap="square" stroke-linejoin="bevel" transform="matrix(1.73913,0,0,1.73913,3.47826,3.47826)"
font-family="Helvetica" font-size="12" font-weight="400" font-style="normal" 
clip-path="url(#clip159)" >
</g>

<g fill="none" stroke="#000000" stroke-opacity="1" stroke-width="1" stroke-linecap="square" stroke-linejoin="bevel" transform="matrix(1,0,0,1,0,0)"
font-family="Helvetica" font-size="12" font-weight="400" font-style="normal" 
>
</g>

<g fill="none" stroke="#000000" stroke-opacity="1" stroke-width="1" stroke-linecap="square" stroke-linejoin="bevel" transform="matrix(1,0,0,1,0,0)"
font-family="Helvetica" font-size="12" font-weight="400" font-style="normal" 
>
</g>

<g fill="none" stroke="#000000" stroke-opacity="1" stroke-width="1" stroke-linecap="square" stroke-linejoin="bevel" transform="matrix(1,0,0,1,0,0)"
font-family="Helvetica" font-size="12" font-weight="400" font-style="normal" 
clip-path="url(#clip160)" >
<defs><clipPath id="clip160"><path vector-effect="non-scaling-stroke" fill-rule="evenodd" d="M0,0 L200,0 L200,106 L0,106 L0,0z "/>
</clipPath></defs></g>

<g fill="none" stroke="#000000" stroke-opacity="1" stroke-width="1" stroke-linecap="square" stroke-linejoin="bevel" transform="matrix(1,0,0,1,0,0)"
font-family="Helvetica" font-size="12" font-weight="400" font-style="normal" 
>
</g>

<g fill="none" stroke="#000000" stroke-opacity="1" stroke-width="1" stroke-linecap="square" stroke-linejoin="bevel" transform="matrix(1,0,0,1,0,0)"
font-family="Helvetica" font-size="12" font-weight="400" font-style="normal" 
>
</g>

<g fill="none" stroke="#000000" stroke-opacity="1" stroke-width="1" stroke-linecap="square" stroke-linejoin="bevel" transform="matrix(1,0,0,1,0,0)"
font-family="Helvetica" font-size="12" font-weight="400" font-style="normal" 
clip-path="url(#clip161)" >
<defs><clipPath id="clip161"><path vector-effect="non-scaling-stroke" fill-rule="evenodd" d="M0,0 L1,0 L1,1 L0,1 L0,0z "/>
</clipPath></defs></g>

<g fill="none" stroke="#000000" stroke-opacity="1" stroke-width="1" stroke-linecap="square" stroke-linejoin="bevel" transform="matrix(1,0,0,1,0,0)"
font-family="Helvetica" font-size="12" font-weight="400" font-style="normal" 
>
</g>

<g fill="none" stroke="#000000" stroke-opacity="1" stroke-width="1" stroke-linecap="square" stroke-linejoin="bevel" transform="matrix(1,0,0,1,0,0)"
font-family="Helvetica" font-size="12" font-weight="400" font-style="normal" 
>
</g>
</g>
</svg>
