<?xml version="1.0" encoding="UTF-8" standalone="no"?>
<svg width="70.5556mm" height="37.3944mm"
 viewBox="0 0 200 106"
 xmlns="http://www.w3.org/2000/svg" xmlns:xlink="http://www.w3.org/1999/xlink"  version="1.2" baseProfile="tiny">
<defs>
</defs>
<g fill="none" stroke="black" stroke-width="1" fill-rule="evenodd" stroke-linecap="square" stroke-linejoin="bevel" >

<g fill="#ffffff" fill-opacity="0" stroke="none" transform="matrix(1,0,0,1,0,0)"
font-family="Helvetica" font-size="12" font-weight="400" font-style="normal" 
>
<path vector-effect="non-scaling-stroke" fill-rule="evenodd" d="M0,0 L200,0 L200,106 L0,106 L0,0z "/>
</g>

<g fill="none" stroke="#000000" stroke-opacity="1" stroke-width="1" stroke-linecap="square" stroke-linejoin="bevel" transform="matrix(1,0,0,1,0,0)"
font-family="Helvetica" font-size="12" font-weight="400" font-style="normal" 
>
</g>

<g fill="none" stroke="#000000" stroke-opacity="1" stroke-width="1" stroke-linecap="square" stroke-linejoin="bevel" transform="matrix(1,0,0,1,0,0)"
font-family="Helvetica" font-size="12" font-weight="400" font-style="normal" 
clip-path="url(#clip222)" >
<defs><clipPath id="clip222"><path vector-effect="non-scaling-stroke" fill-rule="evenodd" d="M0,0 L200,0 L200,106.087 L0,106.087 L0,0z "/>
</clipPath></defs></g>

<g fill="none" stroke="#000000" stroke-opacity="1" stroke-width="1" stroke-linecap="square" stroke-linejoin="bevel" transform="matrix(1.73913,0,0,1.73913,3.47826,3.47826)"
font-family="Helvetica" font-size="12" font-weight="400" font-style="normal" 
clip-path="url(#clip223)" >
<defs><clipPath id="clip223"><path vector-effect="non-scaling-stroke" fill-rule="evenodd" d="M-2,-2 L113,-2 L113,59 L-2,59 L-2,-2z "/>
</clipPath></defs></g>

<g fill="#61bdfc" fill-opacity="1" stroke="none" transform="matrix(1.73913,0,0,1.73913,3.47826,3.47826)"
font-family="Helvetica" font-size="12" font-weight="400" font-style="normal" 
clip-path="url(#clip223)" >
<path vector-effect="none" fill-rule="evenodd" d="M0,0 L111,0 L111,57 L0,57 L0,0z "/>
</g>

<g fill="none" stroke="#000000" stroke-opacity="1" stroke-width="1" stroke-linecap="square" stroke-linejoin="bevel" transform="matrix(1.73913,0,0,1.73913,3.47826,3.47826)"
font-family="Helvetica" font-size="12" font-weight="400" font-style="normal" 
clip-path="url(#clip223)" >
</g>

<g fill="none" stroke="#000000" stroke-opacity="1" stroke-width="1" stroke-linecap="square" stroke-linejoin="bevel" transform="matrix(1.73913,0,0,1.73913,3.47826,3.47826)"
font-family="Helvetica" font-size="12" font-weight="400" font-style="normal" 
clip-path="url(#clip223)" >
</g>

<g fill="none" stroke="#000000" stroke-opacity="1" stroke-width="1" stroke-linecap="square" stroke-linejoin="bevel" transform="matrix(1.73913,0,0,1.73913,3.47826,3.47826)"
font-family="Helvetica" font-size="12" font-weight="400" font-style="normal" 
clip-path="url(#clip224)" >
<defs><clipPath id="clip224"><path vector-effect="non-scaling-stroke" fill-rule="evenodd" d="M0,0 L111,0 L111,57 L0,57 L0,0z "/>
</clipPath></defs></g>

<g fill="none" stroke="#000000" stroke-opacity="1" stroke-width="1" stroke-linecap="square" stroke-linejoin="bevel" transform="matrix(1.73913,0,0,1.73913,99.1304,41.7391)"
font-family="Liberation Sans" font-size="9" font-weight="700" font-style="normal" 
clip-path="url(#clip225)" >
<defs><clipPath id="clip225"><path vector-effect="none" fill-rule="evenodd" d="M-55,-22 L56,-22 L56,35 L-55,35 L-55,-22z "/>
</clipPath></defs></g>

<g fill="none" stroke="#000000" stroke-opacity="1" stroke-width="1" stroke-linecap="square" stroke-linejoin="bevel" transform="matrix(2.31884,0,0,2.31884,99.1304,41.7391)"
font-family="Liberation Sans" font-size="9" font-weight="700" font-style="normal" 
clip-path="url(#clip226)" >
<defs><clipPath id="clip226"><path vector-effect="none" fill-rule="evenodd" d="M-41,-16 L42,-16 L42,27 L-41,27 L-41,-16z "/>
</clipPath></defs><text textLength="58.8594" fill="#000000" fill-opacity="1" stroke="none" xml:space="preserve" x="-29.25" y="3" font-family="Liberation Sans" font-size="9" font-weight="700" font-style="normal" 
 >Configuration</text>
</g>

<g fill="none" stroke="#000000" stroke-opacity="1" stroke-width="1" stroke-linecap="square" stroke-linejoin="bevel" transform="matrix(1.73913,0,0,1.73913,99.1304,41.7391)"
font-family="Liberation Sans" font-size="9" font-weight="700" font-style="normal" 
clip-path="url(#clip227)" >
<defs><clipPath id="clip227"><path vector-effect="none" fill-rule="evenodd" d="M-55,-22 L56,-22 L56,35 L-55,35 L-55,-22z "/>
</clipPath></defs></g>

<g fill="none" stroke="#000000" stroke-opacity="1" stroke-width="1" stroke-linecap="square" stroke-linejoin="bevel" transform="matrix(1.73913,0,0,1.73913,99.1304,64.3478)"
font-family="Liberation Sans" font-size="9" font-weight="700" font-style="normal" 
clip-path="url(#clip228)" >
<defs><clipPath id="clip228"><path vector-effect="none" fill-rule="evenodd" d="M-55,-35 L56,-35 L56,22 L-55,22 L-55,-35z "/>
</clipPath></defs></g>

<g fill="none" stroke="#000000" stroke-opacity="1" stroke-width="1" stroke-linecap="square" stroke-linejoin="bevel" transform="matrix(2.31884,0,0,2.31884,99.1304,64.3478)"
font-family="Liberation Sans" font-size="9" font-weight="700" font-style="normal" 
clip-path="url(#clip229)" >
<defs><clipPath id="clip229"><path vector-effect="none" fill-rule="evenodd" d="M-41,-26 L42,-26 L42,17 L-41,17 L-41,-26z "/>
</clipPath></defs><text textLength="34.4688" fill="#000000" fill-opacity="1" stroke="none" xml:space="preserve" x="-17.25" y="3" font-family="Liberation Sans" font-size="9" font-weight="700" font-style="normal" 
 >Wizards</text>
</g>

<g fill="none" stroke="#000000" stroke-opacity="1" stroke-width="1" stroke-linecap="square" stroke-linejoin="bevel" transform="matrix(1.73913,0,0,1.73913,99.1304,64.3478)"
font-family="Liberation Sans" font-size="9" font-weight="700" font-style="normal" 
clip-path="url(#clip230)" >
<defs><clipPath id="clip230"><path vector-effect="none" fill-rule="evenodd" d="M-55,-35 L56,-35 L56,22 L-55,22 L-55,-35z "/>
</clipPath></defs></g>

<g fill="none" stroke="#000000" stroke-opacity="1" stroke-width="1" stroke-linecap="square" stroke-linejoin="bevel" transform="matrix(1.30435,0,0,1.30435,99.1304,64.3478)"
font-family="Liberation Sans" font-size="9" font-weight="700" font-style="normal" 
clip-path="url(#clip231)" >
<defs><clipPath id="clip231"><path vector-effect="none" fill-rule="evenodd" d="M-2,-2 L113,-2 L113,59 L-2,59 L-2,-2z "/>
</clipPath></defs></g>

<g fill="none" stroke="#000000" stroke-opacity="1" stroke-width="1" stroke-linecap="square" stroke-linejoin="bevel" transform="matrix(1,0,0,1,0,0)"
font-family="Liberation Sans" font-size="9" font-weight="700" font-style="normal" 
clip-path="url(#clip231)" >
</g>

<g fill="none" stroke="#000000" stroke-opacity="1" stroke-width="1" stroke-linecap="square" stroke-linejoin="bevel" transform="matrix(1.73913,0,0,1.73913,3.47826,3.47826)"
font-family="Helvetica" font-size="12" font-weight="400" font-style="normal" 
clip-path="url(#clip231)" >
</g>

<g fill="none" stroke="#000000" stroke-opacity="1" stroke-width="1" stroke-linecap="square" stroke-linejoin="bevel" transform="matrix(1.73913,0,0,1.73913,3.47826,3.47826)"
font-family="Helvetica" font-size="12" font-weight="400" font-style="normal" 
clip-path="url(#clip231)" >
</g>

<g fill="none" stroke="#000000" stroke-opacity="1" stroke-width="0.801433" stroke-linecap="butt" stroke-linejoin="miter" stroke-miterlimit="2" transform="matrix(1.73913,0,0,1.73913,3.47826,3.47826)"
font-family="Helvetica" font-size="12" font-weight="400" font-style="normal" 
clip-path="url(#clip231)" >
<path vector-effect="none" fill-rule="evenodd" d="M0,0 L111,0 L111,57 L0,57 L0,0z "/>
</g>

<g fill="none" stroke="#000000" stroke-opacity="1" stroke-width="1" stroke-linecap="square" stroke-linejoin="bevel" transform="matrix(1.73913,0,0,1.73913,3.47826,3.47826)"
font-family="Helvetica" font-size="12" font-weight="400" font-style="normal" 
clip-path="url(#clip231)" >
</g>

<g fill="none" stroke="#000000" stroke-opacity="1" stroke-width="1" stroke-linecap="square" stroke-linejoin="bevel" transform="matrix(1,0,0,1,0,0)"
font-family="Helvetica" font-size="12" font-weight="400" font-style="normal" 
>
</g>

<g fill="none" stroke="#000000" stroke-opacity="1" stroke-width="1" stroke-linecap="square" stroke-linejoin="bevel" transform="matrix(1,0,0,1,0,0)"
font-family="Helvetica" font-size="12" font-weight="400" font-style="normal" 
>
</g>

<g fill="none" stroke="#000000" stroke-opacity="1" stroke-width="1" stroke-linecap="square" stroke-linejoin="bevel" transform="matrix(1,0,0,1,0,0)"
font-family="Helvetica" font-size="12" font-weight="400" font-style="normal" 
clip-path="url(#clip232)" >
<defs><clipPath id="clip232"><path vector-effect="non-scaling-stroke" fill-rule="evenodd" d="M0,0 L200,0 L200,106 L0,106 L0,0z "/>
</clipPath></defs></g>

<g fill="none" stroke="#000000" stroke-opacity="1" stroke-width="1" stroke-linecap="square" stroke-linejoin="bevel" transform="matrix(1,0,0,1,0,0)"
font-family="Helvetica" font-size="12" font-weight="400" font-style="normal" 
>
</g>

<g fill="none" stroke="#000000" stroke-opacity="1" stroke-width="1" stroke-linecap="square" stroke-linejoin="bevel" transform="matrix(1,0,0,1,0,0)"
font-family="Helvetica" font-size="12" font-weight="400" font-style="normal" 
>
</g>

<g fill="none" stroke="#000000" stroke-opacity="1" stroke-width="1" stroke-linecap="square" stroke-linejoin="bevel" transform="matrix(1,0,0,1,0,0)"
font-family="Helvetica" font-size="12" font-weight="400" font-style="normal" 
clip-path="url(#clip233)" >
<defs><clipPath id="clip233"><path vector-effect="non-scaling-stroke" fill-rule="evenodd" d="M0,0 L1,0 L1,1 L0,1 L0,0z "/>
</clipPath></defs></g>

<g fill="none" stroke="#000000" stroke-opacity="1" stroke-width="1" stroke-linecap="square" stroke-linejoin="bevel" transform="matrix(1,0,0,1,0,0)"
font-family="Helvetica" font-size="12" font-weight="400" font-style="normal" 
>
</g>

<g fill="none" stroke="#000000" stroke-opacity="1" stroke-width="1" stroke-linecap="square" stroke-linejoin="bevel" transform="matrix(1,0,0,1,0,0)"
font-family="Helvetica" font-size="12" font-weight="400" font-style="normal" 
>
</g>
</g>
</svg>
