<?xml version="1.0" encoding="UTF-8" standalone="no"?>
<svg width="70.5556mm" height="22.225mm"
 viewBox="0 0 200 63"
 xmlns="http://www.w3.org/2000/svg" xmlns:xlink="http://www.w3.org/1999/xlink"  version="1.2" baseProfile="tiny">
<defs>
</defs>
<g fill="none" stroke="black" stroke-width="1" fill-rule="evenodd" stroke-linecap="square" stroke-linejoin="bevel" >

<g fill="#ffffff" fill-opacity="0" stroke="none" transform="matrix(1,0,0,1,0,0)"
font-family="Helvetica" font-size="12" font-weight="400" font-style="normal" 
>
<path vector-effect="non-scaling-stroke" fill-rule="evenodd" d="M0,0 L200,0 L200,63 L0,63 L0,0z "/>
</g>

<g fill="none" stroke="#000000" stroke-opacity="1" stroke-width="1" stroke-linecap="square" stroke-linejoin="bevel" transform="matrix(1,0,0,1,0,0)"
font-family="Helvetica" font-size="12" font-weight="400" font-style="normal" 
>
</g>

<g fill="none" stroke="#000000" stroke-opacity="1" stroke-width="1" stroke-linecap="square" stroke-linejoin="bevel" transform="matrix(1,0,0,1,0,0)"
font-family="Helvetica" font-size="12" font-weight="400" font-style="normal" 
clip-path="url(#clip138)" >
<defs><clipPath id="clip138"><path vector-effect="non-scaling-stroke" fill-rule="evenodd" d="M0,0 L200,0 L200,63.9175 L0,63.9175 L0,0z "/>
</clipPath></defs></g>

<g fill="none" stroke="#000000" stroke-opacity="1" stroke-width="1" stroke-linecap="square" stroke-linejoin="bevel" transform="matrix(1.03093,0,0,1.03093,2.06186,2.06186)"
font-family="Helvetica" font-size="12" font-weight="400" font-style="normal" 
clip-path="url(#clip139)" >
<defs><clipPath id="clip139"><path vector-effect="non-scaling-stroke" fill-rule="evenodd" d="M-2,-2 L192,-2 L192,60 L-2,60 L-2,-2z "/>
</clipPath></defs></g>

<g fill="#61bdfc" fill-opacity="1" stroke="none" transform="matrix(1.03093,0,0,1.03093,2.06186,2.06186)"
font-family="Helvetica" font-size="12" font-weight="400" font-style="normal" 
clip-path="url(#clip139)" >
<path vector-effect="none" fill-rule="evenodd" d="M0,0 L190,0 L190,58 L0,58 L0,0z "/>
</g>

<g fill="none" stroke="#000000" stroke-opacity="1" stroke-width="1" stroke-linecap="square" stroke-linejoin="bevel" transform="matrix(1.03093,0,0,1.03093,2.06186,2.06186)"
font-family="Helvetica" font-size="12" font-weight="400" font-style="normal" 
clip-path="url(#clip139)" >
</g>

<g fill="none" stroke="#000000" stroke-opacity="1" stroke-width="1" stroke-linecap="square" stroke-linejoin="bevel" transform="matrix(1.03093,0,0,1.03093,2.06186,2.06186)"
font-family="Helvetica" font-size="12" font-weight="400" font-style="normal" 
clip-path="url(#clip139)" >
</g>

<g fill="none" stroke="#000000" stroke-opacity="1" stroke-width="1" stroke-linecap="square" stroke-linejoin="bevel" transform="matrix(1.03093,0,0,1.03093,2.06186,2.06186)"
font-family="Helvetica" font-size="12" font-weight="400" font-style="normal" 
clip-path="url(#clip140)" >
<defs><clipPath id="clip140"><path vector-effect="non-scaling-stroke" fill-rule="evenodd" d="M0,0 L190,0 L190,58 L0,58 L0,0z "/>
</clipPath></defs></g>

<g fill="none" stroke="#000000" stroke-opacity="1" stroke-width="1" stroke-linecap="square" stroke-linejoin="bevel" transform="matrix(1.03093,0,0,1.03093,100,21.6495)"
font-family="Liberation Sans" font-size="7.5" font-weight="400" font-style="normal" 
clip-path="url(#clip141)" >
<defs><clipPath id="clip141"><path vector-effect="none" fill-rule="evenodd" d="M-95,-19 L95,-19 L95,39 L-95,39 L-95,-19z "/>
</clipPath></defs></g>

<g fill="none" stroke="#000000" stroke-opacity="1" stroke-width="1" stroke-linecap="square" stroke-linejoin="bevel" transform="matrix(1.37457,0,0,1.37457,100,21.6495)"
font-family="Liberation Sans" font-size="7.5" font-weight="400" font-style="normal" 
clip-path="url(#clip142)" >
<defs><clipPath id="clip142"><path vector-effect="none" fill-rule="evenodd" d="M-71,-14 L72,-14 L72,30 L-71,30 L-71,-14z "/>
</clipPath></defs><text textLength="127.359" fill="#000000" fill-opacity="1" stroke="none" xml:space="preserve" x="-59.25" y="2.25" font-family="Liberation Sans" font-size="7.5" font-weight="400" font-style="normal" 
 >Invoke AUTOSAR Server Operation</text>
</g>

<g fill="none" stroke="#000000" stroke-opacity="1" stroke-width="1" stroke-linecap="square" stroke-linejoin="bevel" transform="matrix(1.03093,0,0,1.03093,100,21.6495)"
font-family="Liberation Sans" font-size="7.5" font-weight="400" font-style="normal" 
clip-path="url(#clip143)" >
<defs><clipPath id="clip143"><path vector-effect="none" fill-rule="evenodd" d="M-95,-19 L95,-19 L95,39 L-95,39 L-95,-19z "/>
</clipPath></defs></g>

<g fill="none" stroke="#000000" stroke-opacity="1" stroke-width="1" stroke-linecap="square" stroke-linejoin="bevel" transform="matrix(1.03093,0,0,1.03093,100,31.9588)"
font-family="Liberation Sans" font-size="7.5" font-weight="400" font-style="normal" 
clip-path="url(#clip144)" >
<defs><clipPath id="clip144"><path vector-effect="none" fill-rule="evenodd" d="M-95,-29 L95,-29 L95,29 L-95,29 L-95,-29z "/>
</clipPath></defs></g>

<g fill="none" stroke="#000000" stroke-opacity="1" stroke-width="1" stroke-linecap="square" stroke-linejoin="bevel" transform="matrix(1.37457,0,0,1.37457,100,31.9588)"
font-family="Liberation Sans" font-size="7.5" font-weight="400" font-style="normal" 
clip-path="url(#clip145)" >
<defs><clipPath id="clip145"><path vector-effect="none" fill-rule="evenodd" d="M-71,-22 L72,-22 L72,22 L-71,22 L-71,-22z "/>
</clipPath></defs><text textLength="110.469" fill="#000000" fill-opacity="1" stroke="none" xml:space="preserve" x="-51.75" y="2.25" font-family="Liberation Sans" font-size="7.5" font-weight="400" font-style="normal" 
 >Current Mode: code generation</text>
</g>

<g fill="none" stroke="#000000" stroke-opacity="1" stroke-width="1" stroke-linecap="square" stroke-linejoin="bevel" transform="matrix(1.03093,0,0,1.03093,100,31.9588)"
font-family="Liberation Sans" font-size="7.5" font-weight="400" font-style="normal" 
clip-path="url(#clip146)" >
<defs><clipPath id="clip146"><path vector-effect="none" fill-rule="evenodd" d="M-95,-29 L95,-29 L95,29 L-95,29 L-95,-29z "/>
</clipPath></defs></g>

<g fill="none" stroke="#000000" stroke-opacity="1" stroke-width="1" stroke-linecap="square" stroke-linejoin="bevel" transform="matrix(1.03093,0,0,1.03093,100,42.268)"
font-family="Liberation Sans" font-size="7.5" font-weight="400" font-style="normal" 
clip-path="url(#clip147)" >
<defs><clipPath id="clip147"><path vector-effect="none" fill-rule="evenodd" d="M-95,-39 L95,-39 L95,19 L-95,19 L-95,-39z "/>
</clipPath></defs></g>

<g fill="none" stroke="#000000" stroke-opacity="1" stroke-width="1" stroke-linecap="square" stroke-linejoin="bevel" transform="matrix(1.37457,0,0,1.37457,100,42.268)"
font-family="Liberation Sans" font-size="7.5" font-weight="400" font-style="normal" 
clip-path="url(#clip148)" >
<defs><clipPath id="clip148"><path vector-effect="none" fill-rule="evenodd" d="M-71,-29 L72,-29 L72,15 L-71,15 L-71,-29z "/>
</clipPath></defs><text textLength="84.7344" fill="#000000" fill-opacity="1" stroke="none" xml:space="preserve" x="-39.75" y="2.25" font-family="Liberation Sans" font-size="7.5" font-weight="400" font-style="normal" 
 >(double-click to change)</text>
</g>

<g fill="none" stroke="#000000" stroke-opacity="1" stroke-width="1" stroke-linecap="square" stroke-linejoin="bevel" transform="matrix(1.03093,0,0,1.03093,100,42.268)"
font-family="Liberation Sans" font-size="7.5" font-weight="400" font-style="normal" 
clip-path="url(#clip149)" >
<defs><clipPath id="clip149"><path vector-effect="none" fill-rule="evenodd" d="M-95,-39 L95,-39 L95,19 L-95,19 L-95,-39z "/>
</clipPath></defs></g>

<g fill="none" stroke="#000000" stroke-opacity="1" stroke-width="1" stroke-linecap="square" stroke-linejoin="bevel" transform="matrix(0.773196,0,0,0.773196,100,42.268)"
font-family="Liberation Sans" font-size="7.5" font-weight="400" font-style="normal" 
clip-path="url(#clip150)" >
<defs><clipPath id="clip150"><path vector-effect="none" fill-rule="evenodd" d="M-2,-2 L192,-2 L192,60 L-2,60 L-2,-2z "/>
</clipPath></defs></g>

<g fill="none" stroke="#000000" stroke-opacity="1" stroke-width="1" stroke-linecap="square" stroke-linejoin="bevel" transform="matrix(1,0,0,1,0,0)"
font-family="Liberation Sans" font-size="7.5" font-weight="400" font-style="normal" 
clip-path="url(#clip150)" >
</g>

<g fill="none" stroke="#000000" stroke-opacity="1" stroke-width="1" stroke-linecap="square" stroke-linejoin="bevel" transform="matrix(1.03093,0,0,1.03093,2.06186,2.06186)"
font-family="Helvetica" font-size="12" font-weight="400" font-style="normal" 
clip-path="url(#clip150)" >
</g>

<g fill="none" stroke="#000000" stroke-opacity="1" stroke-width="1" stroke-linecap="square" stroke-linejoin="bevel" transform="matrix(1.03093,0,0,1.03093,2.06186,2.06186)"
font-family="Helvetica" font-size="12" font-weight="400" font-style="normal" 
clip-path="url(#clip150)" >
</g>

<g fill="none" stroke="#000000" stroke-opacity="1" stroke-width="0.98789" stroke-linecap="butt" stroke-linejoin="miter" stroke-miterlimit="2" transform="matrix(1.03093,0,0,1.03093,2.06186,2.06186)"
font-family="Helvetica" font-size="12" font-weight="400" font-style="normal" 
clip-path="url(#clip150)" >
<path vector-effect="none" fill-rule="evenodd" d="M0,0 L190,0 L190,58 L0,58 L0,0z "/>
</g>

<g fill="none" stroke="#000000" stroke-opacity="1" stroke-width="1" stroke-linecap="square" stroke-linejoin="bevel" transform="matrix(1.03093,0,0,1.03093,2.06186,2.06186)"
font-family="Helvetica" font-size="12" font-weight="400" font-style="normal" 
clip-path="url(#clip150)" >
</g>

<g fill="none" stroke="#000000" stroke-opacity="1" stroke-width="1" stroke-linecap="square" stroke-linejoin="bevel" transform="matrix(1,0,0,1,0,0)"
font-family="Helvetica" font-size="12" font-weight="400" font-style="normal" 
>
</g>

<g fill="none" stroke="#000000" stroke-opacity="1" stroke-width="1" stroke-linecap="square" stroke-linejoin="bevel" transform="matrix(1,0,0,1,0,0)"
font-family="Helvetica" font-size="12" font-weight="400" font-style="normal" 
>
</g>

<g fill="none" stroke="#000000" stroke-opacity="1" stroke-width="1" stroke-linecap="square" stroke-linejoin="bevel" transform="matrix(1,0,0,1,0,0)"
font-family="Helvetica" font-size="12" font-weight="400" font-style="normal" 
clip-path="url(#clip151)" >
<defs><clipPath id="clip151"><path vector-effect="non-scaling-stroke" fill-rule="evenodd" d="M0,0 L200,0 L200,63 L0,63 L0,0z "/>
</clipPath></defs></g>

<g fill="none" stroke="#000000" stroke-opacity="1" stroke-width="1" stroke-linecap="square" stroke-linejoin="bevel" transform="matrix(1,0,0,1,0,0)"
font-family="Helvetica" font-size="12" font-weight="400" font-style="normal" 
>
</g>

<g fill="none" stroke="#000000" stroke-opacity="1" stroke-width="1" stroke-linecap="square" stroke-linejoin="bevel" transform="matrix(1,0,0,1,0,0)"
font-family="Helvetica" font-size="12" font-weight="400" font-style="normal" 
>
</g>

<g fill="none" stroke="#000000" stroke-opacity="1" stroke-width="1" stroke-linecap="square" stroke-linejoin="bevel" transform="matrix(1,0,0,1,0,0)"
font-family="Helvetica" font-size="12" font-weight="400" font-style="normal" 
clip-path="url(#clip152)" >
<defs><clipPath id="clip152"><path vector-effect="non-scaling-stroke" fill-rule="evenodd" d="M0,0 L1,0 L1,1 L0,1 L0,0z "/>
</clipPath></defs></g>

<g fill="none" stroke="#000000" stroke-opacity="1" stroke-width="1" stroke-linecap="square" stroke-linejoin="bevel" transform="matrix(1,0,0,1,0,0)"
font-family="Helvetica" font-size="12" font-weight="400" font-style="normal" 
>
</g>

<g fill="none" stroke="#000000" stroke-opacity="1" stroke-width="1" stroke-linecap="square" stroke-linejoin="bevel" transform="matrix(1,0,0,1,0,0)"
font-family="Helvetica" font-size="12" font-weight="400" font-style="normal" 
>
</g>
</g>
</svg>
