<?xml version="1.0" encoding="UTF-8" standalone="no"?>
<svg width="70.5556mm" height="22.9306mm"
 viewBox="0 0 200 65"
 xmlns="http://www.w3.org/2000/svg" xmlns:xlink="http://www.w3.org/1999/xlink"  version="1.2" baseProfile="tiny">
<defs>
</defs>
<g fill="none" stroke="black" stroke-width="1" fill-rule="evenodd" stroke-linecap="square" stroke-linejoin="bevel" >

<g fill="#ffffff" fill-opacity="0" stroke="none" transform="matrix(1,0,0,1,0,0)"
font-family="Helvetica" font-size="12" font-weight="400" font-style="normal" 
>
<path vector-effect="non-scaling-stroke" fill-rule="evenodd" d="M0,0 L200,0 L200,65 L0,65 L0,0z "/>
</g>

<g fill="none" stroke="#000000" stroke-opacity="1" stroke-width="1" stroke-linecap="square" stroke-linejoin="bevel" transform="matrix(1,0,0,1,0,0)"
font-family="Helvetica" font-size="12" font-weight="400" font-style="normal" 
>
</g>

<g fill="none" stroke="#000000" stroke-opacity="1" stroke-width="1" stroke-linecap="square" stroke-linejoin="bevel" transform="matrix(1,0,0,1,0,0)"
font-family="Helvetica" font-size="12" font-weight="400" font-style="normal" 
clip-path="url(#clip174)" >
<defs><clipPath id="clip174"><path vector-effect="non-scaling-stroke" fill-rule="evenodd" d="M0,0 L200,0 L200,65.6716 L0,65.6716 L0,0z "/>
</clipPath></defs></g>

<g fill="none" stroke="#000000" stroke-opacity="1" stroke-width="1" stroke-linecap="square" stroke-linejoin="bevel" transform="matrix(1.49254,0,0,1.49254,2.98507,2.98507)"
font-family="Helvetica" font-size="12" font-weight="400" font-style="normal" 
clip-path="url(#clip175)" >
<defs><clipPath id="clip175"><path vector-effect="non-scaling-stroke" fill-rule="evenodd" d="M-2,-2 L132,-2 L132,42 L-2,42 L-2,-2z "/>
</clipPath></defs></g>

<g fill="#61bdfc" fill-opacity="1" stroke="none" transform="matrix(1.49254,0,0,1.49254,2.98507,2.98507)"
font-family="Helvetica" font-size="12" font-weight="400" font-style="normal" 
clip-path="url(#clip175)" >
<path vector-effect="none" fill-rule="evenodd" d="M0,0 L130,0 L130,40 L0,40 L0,0z "/>
</g>

<g fill="none" stroke="#000000" stroke-opacity="1" stroke-width="1" stroke-linecap="square" stroke-linejoin="bevel" transform="matrix(1.49254,0,0,1.49254,2.98507,2.98507)"
font-family="Helvetica" font-size="12" font-weight="400" font-style="normal" 
clip-path="url(#clip175)" >
</g>

<g fill="none" stroke="#000000" stroke-opacity="1" stroke-width="1" stroke-linecap="square" stroke-linejoin="bevel" transform="matrix(1.49254,0,0,1.49254,2.98507,2.98507)"
font-family="Helvetica" font-size="12" font-weight="400" font-style="normal" 
clip-path="url(#clip175)" >
</g>

<g fill="none" stroke="#000000" stroke-opacity="1" stroke-width="1" stroke-linecap="square" stroke-linejoin="bevel" transform="matrix(1.49254,0,0,1.49254,2.98507,2.98507)"
font-family="Helvetica" font-size="12" font-weight="400" font-style="normal" 
clip-path="url(#clip176)" >
<defs><clipPath id="clip176"><path vector-effect="non-scaling-stroke" fill-rule="evenodd" d="M0,0 L130,0 L130,40 L0,40 L0,0z "/>
</clipPath></defs></g>

<g fill="none" stroke="#000000" stroke-opacity="1" stroke-width="1" stroke-linecap="square" stroke-linejoin="bevel" transform="matrix(1.49254,0,0,1.49254,100,25.3731)"
font-family="Liberation Sans" font-size="7.5" font-weight="400" font-style="normal" 
clip-path="url(#clip177)" >
<defs><clipPath id="clip177"><path vector-effect="none" fill-rule="evenodd" d="M-65,-15 L65,-15 L65,25 L-65,25 L-65,-15z "/>
</clipPath></defs></g>

<g fill="none" stroke="#000000" stroke-opacity="1" stroke-width="1" stroke-linecap="square" stroke-linejoin="bevel" transform="matrix(1.99005,0,0,1.99005,100,25.3731)"
font-family="Liberation Sans" font-size="7.5" font-weight="400" font-style="normal" 
clip-path="url(#clip178)" >
<defs><clipPath id="clip178"><path vector-effect="none" fill-rule="evenodd" d="M-49,-11 L49,-11 L49,19 L-49,19 L-49,-11z "/>
</clipPath></defs><text textLength="58.5469" fill="#000000" fill-opacity="1" stroke="none" xml:space="preserve" x="-27.75" y="2.25" font-family="Liberation Sans" font-size="7.5" font-weight="400" font-style="normal" 
 >Configure Model</text>
</g>

<g fill="none" stroke="#000000" stroke-opacity="1" stroke-width="1" stroke-linecap="square" stroke-linejoin="bevel" transform="matrix(1.49254,0,0,1.49254,100,25.3731)"
font-family="Liberation Sans" font-size="7.5" font-weight="400" font-style="normal" 
clip-path="url(#clip179)" >
<defs><clipPath id="clip179"><path vector-effect="none" fill-rule="evenodd" d="M-65,-15 L65,-15 L65,25 L-65,25 L-65,-15z "/>
</clipPath></defs></g>

<g fill="none" stroke="#000000" stroke-opacity="1" stroke-width="1" stroke-linecap="square" stroke-linejoin="bevel" transform="matrix(1.49254,0,0,1.49254,100,40.2985)"
font-family="Liberation Sans" font-size="7.5" font-weight="400" font-style="normal" 
clip-path="url(#clip180)" >
<defs><clipPath id="clip180"><path vector-effect="none" fill-rule="evenodd" d="M-65,-25 L65,-25 L65,15 L-65,15 L-65,-25z "/>
</clipPath></defs></g>

<g fill="none" stroke="#000000" stroke-opacity="1" stroke-width="1" stroke-linecap="square" stroke-linejoin="bevel" transform="matrix(1.99005,0,0,1.99005,100,40.2985)"
font-family="Liberation Sans" font-size="7.5" font-weight="400" font-style="normal" 
clip-path="url(#clip181)" >
<defs><clipPath id="clip181"><path vector-effect="none" fill-rule="evenodd" d="M-49,-19 L49,-19 L49,11 L-49,11 L-49,-19z "/>
</clipPath></defs><text textLength="86.0625" fill="#000000" fill-opacity="1" stroke="none" xml:space="preserve" x="-40.5" y="2.25" font-family="Liberation Sans" font-size="7.5" font-weight="400" font-style="normal" 
 >(double-click to activate)</text>
</g>

<g fill="none" stroke="#000000" stroke-opacity="1" stroke-width="1" stroke-linecap="square" stroke-linejoin="bevel" transform="matrix(1.49254,0,0,1.49254,100,40.2985)"
font-family="Liberation Sans" font-size="7.5" font-weight="400" font-style="normal" 
clip-path="url(#clip182)" >
<defs><clipPath id="clip182"><path vector-effect="none" fill-rule="evenodd" d="M-65,-25 L65,-25 L65,15 L-65,15 L-65,-25z "/>
</clipPath></defs></g>

<g fill="none" stroke="#000000" stroke-opacity="1" stroke-width="1" stroke-linecap="square" stroke-linejoin="bevel" transform="matrix(1.1194,0,0,1.1194,100,40.2985)"
font-family="Liberation Sans" font-size="7.5" font-weight="400" font-style="normal" 
clip-path="url(#clip183)" >
<defs><clipPath id="clip183"><path vector-effect="none" fill-rule="evenodd" d="M-2,-2 L132,-2 L132,42 L-2,42 L-2,-2z "/>
</clipPath></defs></g>

<g fill="none" stroke="#000000" stroke-opacity="1" stroke-width="1" stroke-linecap="square" stroke-linejoin="bevel" transform="matrix(1,0,0,1,0,0)"
font-family="Liberation Sans" font-size="7.5" font-weight="400" font-style="normal" 
clip-path="url(#clip183)" >
</g>

<g fill="none" stroke="#000000" stroke-opacity="1" stroke-width="1" stroke-linecap="square" stroke-linejoin="bevel" transform="matrix(1.49254,0,0,1.49254,2.98507,2.98507)"
font-family="Helvetica" font-size="12" font-weight="400" font-style="normal" 
clip-path="url(#clip183)" >
</g>

<g fill="none" stroke="#000000" stroke-opacity="1" stroke-width="1" stroke-linecap="square" stroke-linejoin="bevel" transform="matrix(1.49254,0,0,1.49254,2.98507,2.98507)"
font-family="Helvetica" font-size="12" font-weight="400" font-style="normal" 
clip-path="url(#clip183)" >
</g>

<g fill="none" stroke="#000000" stroke-opacity="1" stroke-width="0.851981" stroke-linecap="butt" stroke-linejoin="miter" stroke-miterlimit="2" transform="matrix(1.49254,0,0,1.49254,2.98507,2.98507)"
font-family="Helvetica" font-size="12" font-weight="400" font-style="normal" 
clip-path="url(#clip183)" >
<path vector-effect="none" fill-rule="evenodd" d="M0,0 L130,0 L130,40 L0,40 L0,0z "/>
</g>

<g fill="none" stroke="#000000" stroke-opacity="1" stroke-width="1" stroke-linecap="square" stroke-linejoin="bevel" transform="matrix(1.49254,0,0,1.49254,2.98507,2.98507)"
font-family="Helvetica" font-size="12" font-weight="400" font-style="normal" 
clip-path="url(#clip183)" >
</g>

<g fill="none" stroke="#000000" stroke-opacity="1" stroke-width="1" stroke-linecap="square" stroke-linejoin="bevel" transform="matrix(1,0,0,1,0,0)"
font-family="Helvetica" font-size="12" font-weight="400" font-style="normal" 
>
</g>

<g fill="none" stroke="#000000" stroke-opacity="1" stroke-width="1" stroke-linecap="square" stroke-linejoin="bevel" transform="matrix(1,0,0,1,0,0)"
font-family="Helvetica" font-size="12" font-weight="400" font-style="normal" 
>
</g>

<g fill="none" stroke="#000000" stroke-opacity="1" stroke-width="1" stroke-linecap="square" stroke-linejoin="bevel" transform="matrix(1,0,0,1,0,0)"
font-family="Helvetica" font-size="12" font-weight="400" font-style="normal" 
clip-path="url(#clip184)" >
<defs><clipPath id="clip184"><path vector-effect="non-scaling-stroke" fill-rule="evenodd" d="M0,0 L200,0 L200,65 L0,65 L0,0z "/>
</clipPath></defs></g>

<g fill="none" stroke="#000000" stroke-opacity="1" stroke-width="1" stroke-linecap="square" stroke-linejoin="bevel" transform="matrix(1,0,0,1,0,0)"
font-family="Helvetica" font-size="12" font-weight="400" font-style="normal" 
>
</g>

<g fill="none" stroke="#000000" stroke-opacity="1" stroke-width="1" stroke-linecap="square" stroke-linejoin="bevel" transform="matrix(1,0,0,1,0,0)"
font-family="Helvetica" font-size="12" font-weight="400" font-style="normal" 
>
</g>

<g fill="none" stroke="#000000" stroke-opacity="1" stroke-width="1" stroke-linecap="square" stroke-linejoin="bevel" transform="matrix(1,0,0,1,0,0)"
font-family="Helvetica" font-size="12" font-weight="400" font-style="normal" 
clip-path="url(#clip185)" >
<defs><clipPath id="clip185"><path vector-effect="non-scaling-stroke" fill-rule="evenodd" d="M0,0 L1,0 L1,1 L0,1 L0,0z "/>
</clipPath></defs></g>

<g fill="none" stroke="#000000" stroke-opacity="1" stroke-width="1" stroke-linecap="square" stroke-linejoin="bevel" transform="matrix(1,0,0,1,0,0)"
font-family="Helvetica" font-size="12" font-weight="400" font-style="normal" 
>
</g>

<g fill="none" stroke="#000000" stroke-opacity="1" stroke-width="1" stroke-linecap="square" stroke-linejoin="bevel" transform="matrix(1,0,0,1,0,0)"
font-family="Helvetica" font-size="12" font-weight="400" font-style="normal" 
>
</g>
</g>
</svg>
