<?xml version="1.0" encoding="UTF-8" standalone="no"?>
<svg width="52.9167mm" height="23.0187mm"
 viewBox="0 0 200 87"
 xmlns="http://www.w3.org/2000/svg" xmlns:xlink="http://www.w3.org/1999/xlink"  version="1.2" baseProfile="tiny">
<defs>
</defs>
<g fill="none" stroke="black" stroke-width="1" fill-rule="evenodd" stroke-linecap="square" stroke-linejoin="bevel" >

<g fill="#ffffff" fill-opacity="0" stroke="none" transform="matrix(1,0,0,1,0,0)"
font-family="Helvetica" font-size="16" font-weight="400" font-style="normal" 
>
<path vector-effect="non-scaling-stroke" fill-rule="evenodd" d="M0,0 L200,0 L200,87 L0,87 L0,0z "/>
</g>

<g fill="none" stroke="#000000" stroke-opacity="1" stroke-width="1" stroke-linecap="square" stroke-linejoin="bevel" transform="matrix(1,0,0,1,0,0)"
font-family="Helvetica" font-size="16" font-weight="400" font-style="normal" 
>
</g>

<g fill="none" stroke="#000000" stroke-opacity="1" stroke-width="1" stroke-linecap="square" stroke-linejoin="bevel" transform="matrix(1,0,0,1,0,0)"
font-family="Helvetica" font-size="16" font-weight="400" font-style="normal" 
clip-path="url(#clip106)" >
<defs><clipPath id="clip106"><path vector-effect="non-scaling-stroke" fill-rule="evenodd" d="M0,0 L200,0 L200,87.395 L0,87.395 L0,0z "/>
</clipPath></defs></g>

<g fill="none" stroke="#000000" stroke-opacity="1" stroke-width="1" stroke-linecap="square" stroke-linejoin="bevel" transform="matrix(1.68067,0,0,1.68067,188.235,43.6975)"
font-family="Helvetica" font-size="16" font-weight="400" font-style="normal" 
clip-path="url(#clip107)" >
<defs><clipPath id="clip107"><path vector-effect="non-scaling-stroke" fill-rule="evenodd" d="M-112,-26 L7,-26 L7,26 L-112,26 L-112,-26z "/>
</clipPath></defs></g>

<g fill="#000000" fill-opacity="0" stroke="#000000" stroke-opacity="1" stroke-width="2" stroke-linecap="round" stroke-linejoin="miter" stroke-miterlimit="2" transform="matrix(1.68067,0,0,1.68067,188.235,43.6975)"
font-family="Helvetica" font-size="16" font-weight="400" font-style="normal" 
clip-path="url(#clip107)" >
<path vector-effect="none" fill-rule="evenodd" d="M0,-5 L5,0 L0,5"/>
</g>

<g fill="none" stroke="#000000" stroke-opacity="1" stroke-width="1" stroke-linecap="square" stroke-linejoin="bevel" transform="matrix(1.68067,0,0,1.68067,188.235,43.6975)"
font-family="Helvetica" font-size="16" font-weight="400" font-style="normal" 
clip-path="url(#clip107)" >
</g>

<g fill="none" stroke="#000000" stroke-opacity="1" stroke-width="1" stroke-linecap="square" stroke-linejoin="bevel" transform="matrix(1.68067,0,0,1.68067,3.36134,3.36134)"
font-family="Helvetica" font-size="16" font-weight="400" font-style="normal" 
clip-path="url(#clip108)" >
<defs><clipPath id="clip108"><path vector-effect="non-scaling-stroke" fill-rule="evenodd" d="M-2,-2 L117,-2 L117,50 L-2,50 L-2,-2z "/>
</clipPath></defs></g>

<g fill="#ffffff" fill-opacity="1" stroke="none" transform="matrix(1.68067,0,0,1.68067,3.36134,3.36134)"
font-family="Helvetica" font-size="16" font-weight="400" font-style="normal" 
clip-path="url(#clip108)" >
<path vector-effect="none" fill-rule="evenodd" d="M0,0 L110,0 L110,48 L0,48 L0,0z "/>
</g>

<g fill="none" stroke="#000000" stroke-opacity="1" stroke-width="1" stroke-linecap="square" stroke-linejoin="bevel" transform="matrix(1.68067,0,0,1.68067,3.36134,3.36134)"
font-family="Helvetica" font-size="16" font-weight="400" font-style="normal" 
clip-path="url(#clip108)" >
</g>

<g fill="none" stroke="#000000" stroke-opacity="1" stroke-width="1" stroke-linecap="square" stroke-linejoin="bevel" transform="matrix(1.68067,0,0,1.68067,3.36134,3.36134)"
font-family="Helvetica" font-size="16" font-weight="400" font-style="normal" 
clip-path="url(#clip108)" >
</g>

<g fill="none" stroke="#000000" stroke-opacity="1" stroke-width="1" stroke-linecap="square" stroke-linejoin="bevel" transform="matrix(1.68067,0,0,1.68067,3.36134,3.36134)"
font-family="Helvetica" font-size="16" font-weight="400" font-style="normal" 
clip-path="url(#clip109)" >
<defs><clipPath id="clip109"><path vector-effect="non-scaling-stroke" fill-rule="evenodd" d="M0,0 L110,0 L110,48 L0,48 L0,0z "/>
</clipPath></defs></g>

<g fill="none" stroke="#000000" stroke-opacity="1" stroke-width="1" stroke-linecap="square" stroke-linejoin="bevel" transform="matrix(1.68067,0,0,1.68067,95.7983,33.6134)"
font-family="Helvetica" font-size="10" font-weight="400" font-style="normal" 
clip-path="url(#clip110)" >
<defs><clipPath id="clip110"><path vector-effect="none" fill-rule="evenodd" d="M-55,-18 L55,-18 L55,30 L-55,30 L-55,-18z "/>
</clipPath></defs></g>

<g fill="none" stroke="#000000" stroke-opacity="1" stroke-width="1" stroke-linecap="square" stroke-linejoin="bevel" transform="matrix(1.68067,0,0,1.68067,95.7983,33.6134)"
font-family="Helvetica" font-size="10" font-weight="400" font-style="normal" 
clip-path="url(#clip110)" >
<text textLength="28" fill="#000000" fill-opacity="1" stroke="none" xml:space="preserve" x="-14" y="3" font-family="Helvetica" font-size="10" font-weight="400" font-style="normal" 
 >Query</text>
</g>

<g fill="none" stroke="#000000" stroke-opacity="1" stroke-width="1" stroke-linecap="square" stroke-linejoin="bevel" transform="matrix(1.68067,0,0,1.68067,95.7983,33.6134)"
font-family="Helvetica" font-size="10" font-weight="400" font-style="normal" 
clip-path="url(#clip110)" >
</g>

<g fill="none" stroke="#000000" stroke-opacity="1" stroke-width="1" stroke-linecap="square" stroke-linejoin="bevel" transform="matrix(1.68067,0,0,1.68067,95.7983,53.7815)"
font-family="Helvetica" font-size="10" font-weight="400" font-style="normal" 
clip-path="url(#clip111)" >
<defs><clipPath id="clip111"><path vector-effect="none" fill-rule="evenodd" d="M-55,-30 L55,-30 L55,18 L-55,18 L-55,-30z "/>
</clipPath></defs></g>

<g fill="none" stroke="#000000" stroke-opacity="1" stroke-width="1" stroke-linecap="square" stroke-linejoin="bevel" transform="matrix(1.68067,0,0,1.68067,95.7983,53.7815)"
font-family="Helvetica" font-size="10" font-weight="400" font-style="normal" 
clip-path="url(#clip111)" >
<text textLength="49" fill="#000000" fill-opacity="1" stroke="none" xml:space="preserve" x="-24" y="3" font-family="Helvetica" font-size="10" font-weight="400" font-style="normal" 
 >Instrument</text>
</g>

<g fill="none" stroke="#000000" stroke-opacity="1" stroke-width="1" stroke-linecap="square" stroke-linejoin="bevel" transform="matrix(1.68067,0,0,1.68067,95.7983,53.7815)"
font-family="Helvetica" font-size="10" font-weight="400" font-style="normal" 
clip-path="url(#clip111)" >
</g>

<g fill="none" stroke="#000000" stroke-opacity="1" stroke-width="1" stroke-linecap="square" stroke-linejoin="bevel" transform="matrix(1.68067,0,0,1.68067,95.7983,53.7815)"
font-family="Helvetica" font-size="10" font-weight="400" font-style="normal" 
clip-path="url(#clip112)" >
<defs><clipPath id="clip112"><path vector-effect="none" fill-rule="evenodd" d="M-2,-2 L117,-2 L117,50 L-2,50 L-2,-2z "/>
</clipPath></defs></g>

<g fill="none" stroke="#000000" stroke-opacity="1" stroke-width="1" stroke-linecap="square" stroke-linejoin="bevel" transform="matrix(1,0,0,1,0,0)"
font-family="Helvetica" font-size="10" font-weight="400" font-style="normal" 
clip-path="url(#clip112)" >
</g>

<g fill="none" stroke="#000000" stroke-opacity="1" stroke-width="1" stroke-linecap="square" stroke-linejoin="bevel" transform="matrix(1.68067,0,0,1.68067,3.36134,3.36134)"
font-family="Helvetica" font-size="16" font-weight="400" font-style="normal" 
clip-path="url(#clip112)" >
</g>

<g fill="none" stroke="#000000" stroke-opacity="1" stroke-width="1" stroke-linecap="square" stroke-linejoin="bevel" transform="matrix(1.68067,0,0,1.68067,3.36134,3.36134)"
font-family="Helvetica" font-size="16" font-weight="400" font-style="normal" 
clip-path="url(#clip112)" >
</g>

<g fill="none" stroke="#000000" stroke-opacity="1" stroke-width="0.812469" stroke-linecap="butt" stroke-linejoin="miter" stroke-miterlimit="2" transform="matrix(1.68067,0,0,1.68067,3.36134,3.36134)"
font-family="Helvetica" font-size="16" font-weight="400" font-style="normal" 
clip-path="url(#clip112)" >
<path vector-effect="none" fill-rule="evenodd" d="M0,0 L110,0 L110,48 L0,48 L0,0z "/>
</g>

<g fill="none" stroke="#000000" stroke-opacity="1" stroke-width="1" stroke-linecap="square" stroke-linejoin="bevel" transform="matrix(1.68067,0,0,1.68067,3.36134,3.36134)"
font-family="Helvetica" font-size="16" font-weight="400" font-style="normal" 
clip-path="url(#clip112)" >
</g>

<g fill="none" stroke="#000000" stroke-opacity="1" stroke-width="1" stroke-linecap="square" stroke-linejoin="bevel" transform="matrix(1.68067,0,0,1.68067,3.36134,3.36134)"
font-family="Helvetica" font-size="16" font-weight="400" font-style="normal" 
clip-path="url(#clip112)" >
</g>

<g fill="none" stroke="#000000" stroke-opacity="1" stroke-width="0.595" stroke-linecap="butt" stroke-linejoin="miter" stroke-miterlimit="2" transform="matrix(1.68067,0,0,1.68067,3.36134,3.36134)"
font-family="Helvetica" font-size="16" font-weight="400" font-style="normal" 
clip-path="url(#clip112)" >
</g>

<g fill="none" stroke="#000000" stroke-opacity="1" stroke-width="1" stroke-linecap="square" stroke-linejoin="bevel" transform="matrix(1.68067,0,0,1.68067,3.36134,3.36134)"
font-family="Helvetica" font-size="16" font-weight="400" font-style="normal" 
clip-path="url(#clip112)" >
</g>

<g fill="none" stroke="#000000" stroke-opacity="1" stroke-width="1" stroke-linecap="square" stroke-linejoin="bevel" transform="matrix(1.68067,0,0,1.68067,95.7983,87.395)"
font-family="Helvetica" font-size="16" font-weight="400" font-style="normal" 
clip-path="url(#clip113)" >
<defs><clipPath id="clip113"><path vector-effect="non-scaling-stroke" fill-rule="evenodd" d="M-57,-52 L62,-52 L62,7.10543e-15 L-57,7.10543e-15 L-57,-52z "/>
</clipPath></defs></g>

<g fill="none" stroke="none" transform="matrix(1.68067,0,0,1.68067,95.7983,87.395)"
font-family="Helvetica" font-size="16" font-weight="400" font-style="normal" 
clip-path="url(#clip113)" >
<path vector-effect="none" fill-rule="evenodd" d="M-38.5,0 L38.5,0 L38.5,15 L-38.5,15 L-38.5,0z "/>
</g>

<g fill="none" stroke="#000000" stroke-opacity="1" stroke-width="1" stroke-linecap="square" stroke-linejoin="bevel" transform="matrix(1.68067,0,0,1.68067,95.7983,87.395)"
font-family="Helvetica" font-size="40" font-weight="400" font-style="normal" 
clip-path="url(#clip113)" >
</g>

<g fill="none" stroke="#000000" stroke-opacity="1" stroke-width="1" stroke-linecap="square" stroke-linejoin="bevel" transform="matrix(0.420168,0,0,0.420168,32.7731,89.0756)"
font-family="Helvetica" font-size="40" font-weight="400" font-style="normal" 
clip-path="url(#clip114)" >
<defs><clipPath id="clip114"><path vector-effect="non-scaling-stroke" fill-rule="evenodd" d="M-78,-212 L398,-212 L398,-4 L-78,-4 L-78,-212z "/>
</clipPath></defs></g>

<g fill="none" stroke="#000000" stroke-opacity="1" stroke-width="1" stroke-linecap="square" stroke-linejoin="bevel" transform="matrix(0.420168,0,0,0.420168,32.7731,89.0756)"
font-family="Helvetica" font-size="40" font-weight="400" font-style="normal" 
clip-path="url(#clip114)" >
</g>

<g fill="none" stroke="#000000" stroke-opacity="1" stroke-width="1" stroke-linecap="square" stroke-linejoin="bevel" transform="matrix(0.420168,0,0,0.420168,32.7731,89.0756)"
font-family="Helvetica" font-size="40" font-weight="400" font-style="normal" 
>
</g>

<g fill="none" stroke="#000000" stroke-opacity="1" stroke-width="1" stroke-linecap="square" stroke-linejoin="bevel" transform="matrix(0.420168,0,0,0.420168,32.7731,89.0756)"
font-family="Helvetica" font-size="40" font-weight="400" font-style="normal" 
clip-path="url(#clip114)" >
</g>

<g fill="none" stroke="#000000" stroke-opacity="1" stroke-width="1" stroke-linecap="square" stroke-linejoin="bevel" transform="matrix(1,0,0,1,0,0)"
font-family="Helvetica" font-size="40" font-weight="400" font-style="normal" 
clip-path="url(#clip114)" >
</g>

<g fill="none" stroke="#000000" stroke-opacity="1" stroke-width="1" stroke-linecap="square" stroke-linejoin="bevel" transform="matrix(0.420168,0,0,0.420168,32.7731,89.0756)"
font-family="Helvetica" font-size="40" font-weight="400" font-style="normal" 
clip-path="url(#clip114)" >
</g>

<g fill="none" stroke="#000000" stroke-opacity="1" stroke-width="1" stroke-linecap="square" stroke-linejoin="bevel" transform="matrix(0.420168,0,0,0.420168,32.7731,89.0756)"
font-family="Helvetica" font-size="40" font-weight="400" font-style="normal" 
clip-path="url(#clip114)" >
</g>

<g fill="none" stroke="#000000" stroke-opacity="1" stroke-width="1" stroke-linecap="square" stroke-linejoin="bevel" transform="matrix(1.68067,0,0,1.68067,95.7983,87.395)"
font-family="Helvetica" font-size="40" font-weight="400" font-style="normal" 
clip-path="url(#clip115)" >
<defs><clipPath id="clip115"><path vector-effect="non-scaling-stroke" fill-rule="evenodd" d="M-57,-52 L62,-52 L62,7.10543e-15 L-57,7.10543e-15 L-57,-52z "/>
</clipPath></defs></g>

<g fill="none" stroke="#000000" stroke-opacity="1" stroke-width="1" stroke-linecap="square" stroke-linejoin="bevel" transform="matrix(1.68067,0,0,1.68067,95.7983,87.395)"
font-family="Helvetica" font-size="16" font-weight="400" font-style="normal" 
clip-path="url(#clip115)" >
</g>

<g fill="none" stroke="#000000" stroke-opacity="1" stroke-width="1" stroke-linecap="square" stroke-linejoin="bevel" transform="matrix(1,0,0,1,0,0)"
font-family="Helvetica" font-size="16" font-weight="400" font-style="normal" 
>
</g>

<g fill="none" stroke="#000000" stroke-opacity="1" stroke-width="1" stroke-linecap="square" stroke-linejoin="bevel" transform="matrix(1,0,0,1,0,0)"
font-family="Helvetica" font-size="16" font-weight="400" font-style="normal" 
>
</g>

<g fill="none" stroke="#000000" stroke-opacity="1" stroke-width="1" stroke-linecap="square" stroke-linejoin="bevel" transform="matrix(1,0,0,1,0,0)"
font-family="Helvetica" font-size="16" font-weight="400" font-style="normal" 
clip-path="url(#clip116)" >
<defs><clipPath id="clip116"><path vector-effect="non-scaling-stroke" fill-rule="evenodd" d="M0,0 L200,0 L200,87 L0,87 L0,0z "/>
</clipPath></defs></g>

<g fill="none" stroke="#000000" stroke-opacity="1" stroke-width="1" stroke-linecap="square" stroke-linejoin="bevel" transform="matrix(1,0,0,1,0,0)"
font-family="Helvetica" font-size="16" font-weight="400" font-style="normal" 
>
</g>

<g fill="none" stroke="#000000" stroke-opacity="1" stroke-width="1" stroke-linecap="square" stroke-linejoin="bevel" transform="matrix(1,0,0,1,0,0)"
font-family="Helvetica" font-size="16" font-weight="400" font-style="normal" 
>
</g>

<g fill="none" stroke="#000000" stroke-opacity="1" stroke-width="1" stroke-linecap="square" stroke-linejoin="bevel" transform="matrix(1,0,0,1,0,0)"
font-family="Helvetica" font-size="16" font-weight="400" font-style="normal" 
clip-path="url(#clip117)" >
<defs><clipPath id="clip117"><path vector-effect="non-scaling-stroke" fill-rule="evenodd" d="M0,0 L1,0 L1,1 L0,1 L0,0z "/>
</clipPath></defs></g>

<g fill="none" stroke="#000000" stroke-opacity="1" stroke-width="1" stroke-linecap="square" stroke-linejoin="bevel" transform="matrix(1,0,0,1,0,0)"
font-family="Helvetica" font-size="16" font-weight="400" font-style="normal" 
>
</g>

<g fill="none" stroke="#000000" stroke-opacity="1" stroke-width="1" stroke-linecap="square" stroke-linejoin="bevel" transform="matrix(1,0,0,1,0,0)"
font-family="Helvetica" font-size="16" font-weight="400" font-style="normal" 
>
</g>
</g>
</svg>
