<?xml version="1.0" encoding="UTF-8" standalone="no"?>
<svg width="64.3467mm" height="67.7333mm"
 viewBox="0 0 190 200"
 xmlns="http://www.w3.org/2000/svg" xmlns:xlink="http://www.w3.org/1999/xlink"  version="1.2" baseProfile="tiny">
<defs>
</defs>
<g fill="none" stroke="black" stroke-width="1" fill-rule="evenodd" stroke-linecap="square" stroke-linejoin="bevel" >

<g fill="#ffffff" fill-opacity="0" stroke="none" transform="matrix(1,0,0,1,0,0)"
font-family="Nimbus Sans L" font-size="12.5" font-weight="400" font-style="normal" 
>
<path vector-effect="non-scaling-stroke" fill-rule="evenodd" d="M0,0 L190,0 L190,200 L0,200 L0,0z "/>
</g>

<g fill="none" stroke="#000000" stroke-opacity="1" stroke-width="1" stroke-linecap="square" stroke-linejoin="bevel" transform="matrix(1,0,0,1,0,0)"
font-family="Nimbus Sans L" font-size="12.5" font-weight="400" font-style="normal" 
>
</g>

<g fill="none" stroke="#000000" stroke-opacity="1" stroke-width="1" stroke-linecap="square" stroke-linejoin="bevel" transform="matrix(1,0,0,1,0,0)"
font-family="Nimbus Sans L" font-size="12.5" font-weight="400" font-style="normal" 
clip-path="url(#clip413)" >
<defs><clipPath id="clip413"><path vector-effect="non-scaling-stroke" fill-rule="evenodd" d="M0,0 L190.323,0 L190.323,200 L0,200 L0,0z "/>
</clipPath></defs></g>

<g fill="none" stroke="#000000" stroke-opacity="1" stroke-width="1" stroke-linecap="square" stroke-linejoin="bevel" transform="matrix(3.22581,0,0,3.22581,6.45161,6.45161)"
font-family="Nimbus Sans L" font-size="12.5" font-weight="400" font-style="normal" 
clip-path="url(#clip414)" >
<defs><clipPath id="clip414"><path vector-effect="non-scaling-stroke" fill-rule="evenodd" d="M-2,-2 L57,-2 L57,60 L-2,60 L-2,-2z "/>
</clipPath></defs></g>

<g fill="#ffffff" fill-opacity="1" stroke="none" transform="matrix(3.22581,0,0,3.22581,6.45161,6.45161)"
font-family="Nimbus Sans L" font-size="12.5" font-weight="400" font-style="normal" 
clip-path="url(#clip414)" >
<path vector-effect="none" fill-rule="evenodd" d="M0,0 L55,0 L55,58 L0,58 L0,0z "/>
</g>

<g fill="none" stroke="#000000" stroke-opacity="1" stroke-width="1" stroke-linecap="square" stroke-linejoin="bevel" transform="matrix(3.22581,0,0,3.22581,6.45161,6.45161)"
font-family="Nimbus Sans L" font-size="12.5" font-weight="400" font-style="normal" 
clip-path="url(#clip414)" >
</g>

<g fill="none" stroke="#000000" stroke-opacity="1" stroke-width="1" stroke-linecap="square" stroke-linejoin="bevel" transform="matrix(3.22581,0,0,3.22581,6.45161,6.45161)"
font-family="Nimbus Sans L" font-size="12.5" font-weight="400" font-style="normal" 
clip-path="url(#clip414)" >
</g>

<g fill="none" stroke="#000000" stroke-opacity="1" stroke-width="1" stroke-linecap="square" stroke-linejoin="bevel" transform="matrix(3.22581,0,0,3.22581,6.45161,6.45161)"
font-family="Nimbus Sans L" font-size="12.5" font-weight="400" font-style="normal" 
clip-path="url(#clip415)" >
<defs><clipPath id="clip415"><path vector-effect="non-scaling-stroke" fill-rule="evenodd" d="M0,0 L55,0 L55,58 L0,58 L0,0z "/>
</clipPath></defs></g>

<g fill="#ff8282" fill-opacity="1" stroke="#ff8282" stroke-opacity="1" stroke-width="1" stroke-linecap="square" stroke-linejoin="bevel" transform="matrix(3.22581,0,0,3.22581,-106.452,-45.1613)"
font-family="Nimbus Sans L" font-size="12.5" font-weight="400" font-style="normal" 
clip-path="url(#clip416)" >
<defs><clipPath id="clip416"><path vector-effect="none" fill-rule="evenodd" d="M35,16 L90,16 L90,74 L35,74 L35,16z "/>
</clipPath></defs><path vector-effect="none" fill-rule="evenodd" d="M35,73 L89,73 L89,16 L35,16 L35,73z "/>
</g>

<g fill="#aa5757" fill-opacity="1" stroke="#aa5757" stroke-opacity="1" stroke-width="1" stroke-linecap="square" stroke-linejoin="bevel" transform="matrix(3.22581,0,0,3.22581,-106.452,-45.1613)"
font-family="Nimbus Sans L" font-size="12.5" font-weight="400" font-style="normal" 
clip-path="url(#clip416)" >
<path vector-effect="none" fill-rule="evenodd" d="M35,73 L89,73 L89,16 L86,19 L86,70 L38,70 L35,73z "/>
</g>

<g fill="#ffacac" fill-opacity="1" stroke="#ffacac" stroke-opacity="1" stroke-width="1" stroke-linecap="square" stroke-linejoin="bevel" transform="matrix(3.22581,0,0,3.22581,-106.452,-45.1613)"
font-family="Nimbus Sans L" font-size="12.5" font-weight="400" font-style="normal" 
clip-path="url(#clip416)" >
<path vector-effect="none" fill-rule="evenodd" d="M35,73 L35,16 L89,16 L86,19 L38,19 L38,70 L35,73z "/>
</g>

<g fill="#ffacac" fill-opacity="1" stroke="#ffffff" stroke-opacity="1" stroke-width="1" stroke-linecap="square" stroke-linejoin="bevel" transform="matrix(3.22581,0,0,3.22581,-104.839,-43.5484)"
font-family="Nimbus Sans L" font-size="12.5" font-weight="400" font-style="normal" 
clip-path="url(#clip416)" >
<polyline fill="none" vector-effect="none" points="43,45 81,45 " />
</g>

<g fill="#ffacac" fill-opacity="1" stroke="#ffffff" stroke-opacity="1" stroke-width="1" stroke-linecap="square" stroke-linejoin="bevel" transform="matrix(3.22581,0,0,3.22581,-104.839,-43.5484)"
font-family="Nimbus Sans L" font-size="12.5" font-weight="400" font-style="normal" 
clip-path="url(#clip416)" >
<polyline fill="none" vector-effect="none" points="62,64 62,25 " />
</g>

<g fill="#000000" fill-opacity="1" stroke="none" transform="matrix(3.22581,0,0,3.22581,-104.839,-43.5484)"
font-family="Nimbus Sans L" font-size="12.5" font-weight="400" font-style="normal" 
clip-path="url(#clip416)" >
<path vector-effect="non-scaling-stroke" fill-rule="evenodd" d="M42.5,63.5 L43.5,63.5 L43.5,64.5 L42.5,64.5 L42.5,63.5z "/>
</g>

<g fill="#ffacac" fill-opacity="1" stroke="#000000" stroke-opacity="1" stroke-width="1" stroke-linecap="square" stroke-linejoin="bevel" transform="matrix(3.22581,0,0,3.22581,-104.839,-43.5484)"
font-family="Nimbus Sans L" font-size="12.5" font-weight="400" font-style="normal" 
clip-path="url(#clip416)" >
<polyline fill="none" vector-effect="none" points="43,64 44,64 " />
</g>

<g fill="#ffacac" fill-opacity="1" stroke="#000000" stroke-opacity="1" stroke-width="1" stroke-linecap="square" stroke-linejoin="bevel" transform="matrix(3.22581,0,0,3.22581,-104.839,-43.5484)"
font-family="Nimbus Sans L" font-size="12.5" font-weight="400" font-style="normal" 
clip-path="url(#clip416)" >
<polyline fill="none" vector-effect="none" points="44,64 45,64 " />
</g>

<g fill="#ffacac" fill-opacity="1" stroke="#000000" stroke-opacity="1" stroke-width="1" stroke-linecap="square" stroke-linejoin="bevel" transform="matrix(3.22581,0,0,3.22581,-104.839,-43.5484)"
font-family="Nimbus Sans L" font-size="12.5" font-weight="400" font-style="normal" 
clip-path="url(#clip416)" >
<polyline fill="none" vector-effect="none" points="45,64 46,64 " />
</g>

<g fill="#ffacac" fill-opacity="1" stroke="#000000" stroke-opacity="1" stroke-width="1" stroke-linecap="square" stroke-linejoin="bevel" transform="matrix(3.22581,0,0,3.22581,-104.839,-43.5484)"
font-family="Nimbus Sans L" font-size="12.5" font-weight="400" font-style="normal" 
clip-path="url(#clip416)" >
<polyline fill="none" vector-effect="none" points="46,64 47,64 " />
</g>

<g fill="#ffacac" fill-opacity="1" stroke="#000000" stroke-opacity="1" stroke-width="1" stroke-linecap="square" stroke-linejoin="bevel" transform="matrix(3.22581,0,0,3.22581,-104.839,-43.5484)"
font-family="Nimbus Sans L" font-size="12.5" font-weight="400" font-style="normal" 
clip-path="url(#clip416)" >
<polyline fill="none" vector-effect="none" points="47,64 48,64 " />
</g>

<g fill="#ffacac" fill-opacity="1" stroke="#000000" stroke-opacity="1" stroke-width="1" stroke-linecap="square" stroke-linejoin="bevel" transform="matrix(3.22581,0,0,3.22581,-104.839,-43.5484)"
font-family="Nimbus Sans L" font-size="12.5" font-weight="400" font-style="normal" 
clip-path="url(#clip416)" >
<polyline fill="none" vector-effect="none" points="48,64 48,63 " />
</g>

<g fill="#ffacac" fill-opacity="1" stroke="#000000" stroke-opacity="1" stroke-width="1" stroke-linecap="square" stroke-linejoin="bevel" transform="matrix(3.22581,0,0,3.22581,-104.839,-43.5484)"
font-family="Nimbus Sans L" font-size="12.5" font-weight="400" font-style="normal" 
clip-path="url(#clip416)" >
<polyline fill="none" vector-effect="none" points="48,63 49,63 " />
</g>

<g fill="#ffacac" fill-opacity="1" stroke="#000000" stroke-opacity="1" stroke-width="1" stroke-linecap="square" stroke-linejoin="bevel" transform="matrix(3.22581,0,0,3.22581,-104.839,-43.5484)"
font-family="Nimbus Sans L" font-size="12.5" font-weight="400" font-style="normal" 
clip-path="url(#clip416)" >
<polyline fill="none" vector-effect="none" points="49,63 50,63 " />
</g>

<g fill="#ffacac" fill-opacity="1" stroke="#000000" stroke-opacity="1" stroke-width="1" stroke-linecap="square" stroke-linejoin="bevel" transform="matrix(3.22581,0,0,3.22581,-104.839,-43.5484)"
font-family="Nimbus Sans L" font-size="12.5" font-weight="400" font-style="normal" 
clip-path="url(#clip416)" >
<polyline fill="none" vector-effect="none" points="50,63 51,63 " />
</g>

<g fill="#ffacac" fill-opacity="1" stroke="#000000" stroke-opacity="1" stroke-width="1" stroke-linecap="square" stroke-linejoin="bevel" transform="matrix(3.22581,0,0,3.22581,-104.839,-43.5484)"
font-family="Nimbus Sans L" font-size="12.5" font-weight="400" font-style="normal" 
clip-path="url(#clip416)" >
<polyline fill="none" vector-effect="none" points="51,63 51,62 " />
</g>

<g fill="#ffacac" fill-opacity="1" stroke="#000000" stroke-opacity="1" stroke-width="1" stroke-linecap="square" stroke-linejoin="bevel" transform="matrix(3.22581,0,0,3.22581,-104.839,-43.5484)"
font-family="Nimbus Sans L" font-size="12.5" font-weight="400" font-style="normal" 
clip-path="url(#clip416)" >
<polyline fill="none" vector-effect="none" points="51,62 52,62 " />
</g>

<g fill="#ffacac" fill-opacity="1" stroke="#000000" stroke-opacity="1" stroke-width="1" stroke-linecap="square" stroke-linejoin="bevel" transform="matrix(3.22581,0,0,3.22581,-104.839,-43.5484)"
font-family="Nimbus Sans L" font-size="12.5" font-weight="400" font-style="normal" 
clip-path="url(#clip416)" >
<polyline fill="none" vector-effect="none" points="52,62 53,61 " />
</g>

<g fill="#ffacac" fill-opacity="1" stroke="#000000" stroke-opacity="1" stroke-width="1" stroke-linecap="square" stroke-linejoin="bevel" transform="matrix(3.22581,0,0,3.22581,-104.839,-43.5484)"
font-family="Nimbus Sans L" font-size="12.5" font-weight="400" font-style="normal" 
clip-path="url(#clip416)" >
<polyline fill="none" vector-effect="none" points="53,61 54,60 " />
</g>

<g fill="#ffacac" fill-opacity="1" stroke="#000000" stroke-opacity="1" stroke-width="1" stroke-linecap="square" stroke-linejoin="bevel" transform="matrix(3.22581,0,0,3.22581,-104.839,-43.5484)"
font-family="Nimbus Sans L" font-size="12.5" font-weight="400" font-style="normal" 
clip-path="url(#clip416)" >
<polyline fill="none" vector-effect="none" points="54,60 55,59 " />
</g>

<g fill="#ffacac" fill-opacity="1" stroke="#000000" stroke-opacity="1" stroke-width="1" stroke-linecap="square" stroke-linejoin="bevel" transform="matrix(3.22581,0,0,3.22581,-104.839,-43.5484)"
font-family="Nimbus Sans L" font-size="12.5" font-weight="400" font-style="normal" 
clip-path="url(#clip416)" >
<polyline fill="none" vector-effect="none" points="55,59 56,58 " />
</g>

<g fill="#ffacac" fill-opacity="1" stroke="#000000" stroke-opacity="1" stroke-width="1" stroke-linecap="square" stroke-linejoin="bevel" transform="matrix(3.22581,0,0,3.22581,-104.839,-43.5484)"
font-family="Nimbus Sans L" font-size="12.5" font-weight="400" font-style="normal" 
clip-path="url(#clip416)" >
<polyline fill="none" vector-effect="none" points="56,58 56,57 " />
</g>

<g fill="#ffacac" fill-opacity="1" stroke="#000000" stroke-opacity="1" stroke-width="1" stroke-linecap="square" stroke-linejoin="bevel" transform="matrix(3.22581,0,0,3.22581,-104.839,-43.5484)"
font-family="Nimbus Sans L" font-size="12.5" font-weight="400" font-style="normal" 
clip-path="url(#clip416)" >
<polyline fill="none" vector-effect="none" points="56,57 57,57 " />
</g>

<g fill="#ffacac" fill-opacity="1" stroke="#000000" stroke-opacity="1" stroke-width="1" stroke-linecap="square" stroke-linejoin="bevel" transform="matrix(3.22581,0,0,3.22581,-104.839,-43.5484)"
font-family="Nimbus Sans L" font-size="12.5" font-weight="400" font-style="normal" 
clip-path="url(#clip416)" >
<polyline fill="none" vector-effect="none" points="57,57 57,56 " />
</g>

<g fill="#ffacac" fill-opacity="1" stroke="#000000" stroke-opacity="1" stroke-width="1" stroke-linecap="square" stroke-linejoin="bevel" transform="matrix(3.22581,0,0,3.22581,-104.839,-43.5484)"
font-family="Nimbus Sans L" font-size="12.5" font-weight="400" font-style="normal" 
clip-path="url(#clip416)" >
<polyline fill="none" vector-effect="none" points="57,56 57,55 " />
</g>

<g fill="#ffacac" fill-opacity="1" stroke="#000000" stroke-opacity="1" stroke-width="1" stroke-linecap="square" stroke-linejoin="bevel" transform="matrix(3.22581,0,0,3.22581,-104.839,-43.5484)"
font-family="Nimbus Sans L" font-size="12.5" font-weight="400" font-style="normal" 
clip-path="url(#clip416)" >
<polyline fill="none" vector-effect="none" points="57,55 58,55 " />
</g>

<g fill="#ffacac" fill-opacity="1" stroke="#000000" stroke-opacity="1" stroke-width="1" stroke-linecap="square" stroke-linejoin="bevel" transform="matrix(3.22581,0,0,3.22581,-104.839,-43.5484)"
font-family="Nimbus Sans L" font-size="12.5" font-weight="400" font-style="normal" 
clip-path="url(#clip416)" >
<polyline fill="none" vector-effect="none" points="58,55 58,54 " />
</g>

<g fill="#ffacac" fill-opacity="1" stroke="#000000" stroke-opacity="1" stroke-width="1" stroke-linecap="square" stroke-linejoin="bevel" transform="matrix(3.22581,0,0,3.22581,-104.839,-43.5484)"
font-family="Nimbus Sans L" font-size="12.5" font-weight="400" font-style="normal" 
clip-path="url(#clip416)" >
<polyline fill="none" vector-effect="none" points="58,54 58,53 " />
</g>

<g fill="#ffacac" fill-opacity="1" stroke="#000000" stroke-opacity="1" stroke-width="1" stroke-linecap="square" stroke-linejoin="bevel" transform="matrix(3.22581,0,0,3.22581,-104.839,-43.5484)"
font-family="Nimbus Sans L" font-size="12.5" font-weight="400" font-style="normal" 
clip-path="url(#clip416)" >
<polyline fill="none" vector-effect="none" points="58,53 59,53 " />
</g>

<g fill="#ffacac" fill-opacity="1" stroke="#000000" stroke-opacity="1" stroke-width="1" stroke-linecap="square" stroke-linejoin="bevel" transform="matrix(3.22581,0,0,3.22581,-104.839,-43.5484)"
font-family="Nimbus Sans L" font-size="12.5" font-weight="400" font-style="normal" 
clip-path="url(#clip416)" >
<polyline fill="none" vector-effect="none" points="59,53 59,52 " />
</g>

<g fill="#ffacac" fill-opacity="1" stroke="#000000" stroke-opacity="1" stroke-width="1" stroke-linecap="square" stroke-linejoin="bevel" transform="matrix(3.22581,0,0,3.22581,-104.839,-43.5484)"
font-family="Nimbus Sans L" font-size="12.5" font-weight="400" font-style="normal" 
clip-path="url(#clip416)" >
<polyline fill="none" vector-effect="none" points="59,52 59,51 " />
</g>

<g fill="#ffacac" fill-opacity="1" stroke="#000000" stroke-opacity="1" stroke-width="1" stroke-linecap="square" stroke-linejoin="bevel" transform="matrix(3.22581,0,0,3.22581,-104.839,-43.5484)"
font-family="Nimbus Sans L" font-size="12.5" font-weight="400" font-style="normal" 
clip-path="url(#clip416)" >
<polyline fill="none" vector-effect="none" points="59,51 60,51 " />
</g>

<g fill="#ffacac" fill-opacity="1" stroke="#000000" stroke-opacity="1" stroke-width="1" stroke-linecap="square" stroke-linejoin="bevel" transform="matrix(3.22581,0,0,3.22581,-104.839,-43.5484)"
font-family="Nimbus Sans L" font-size="12.5" font-weight="400" font-style="normal" 
clip-path="url(#clip416)" >
<polyline fill="none" vector-effect="none" points="60,51 60,50 " />
</g>

<g fill="#ffacac" fill-opacity="1" stroke="#000000" stroke-opacity="1" stroke-width="1" stroke-linecap="square" stroke-linejoin="bevel" transform="matrix(3.22581,0,0,3.22581,-104.839,-43.5484)"
font-family="Nimbus Sans L" font-size="12.5" font-weight="400" font-style="normal" 
clip-path="url(#clip416)" >
<polyline fill="none" vector-effect="none" points="60,50 60,49 " />
</g>

<g fill="#ffacac" fill-opacity="1" stroke="#000000" stroke-opacity="1" stroke-width="1" stroke-linecap="square" stroke-linejoin="bevel" transform="matrix(3.22581,0,0,3.22581,-104.839,-43.5484)"
font-family="Nimbus Sans L" font-size="12.5" font-weight="400" font-style="normal" 
clip-path="url(#clip416)" >
<polyline fill="none" vector-effect="none" points="60,49 60,48 " />
</g>

<g fill="#ffacac" fill-opacity="1" stroke="#000000" stroke-opacity="1" stroke-width="1" stroke-linecap="square" stroke-linejoin="bevel" transform="matrix(3.22581,0,0,3.22581,-104.839,-43.5484)"
font-family="Nimbus Sans L" font-size="12.5" font-weight="400" font-style="normal" 
clip-path="url(#clip416)" >
<polyline fill="none" vector-effect="none" points="60,48 61,48 " />
</g>

<g fill="#ffacac" fill-opacity="1" stroke="#000000" stroke-opacity="1" stroke-width="1" stroke-linecap="square" stroke-linejoin="bevel" transform="matrix(3.22581,0,0,3.22581,-104.839,-43.5484)"
font-family="Nimbus Sans L" font-size="12.5" font-weight="400" font-style="normal" 
clip-path="url(#clip416)" >
<polyline fill="none" vector-effect="none" points="61,48 61,47 " />
</g>

<g fill="#ffacac" fill-opacity="1" stroke="#000000" stroke-opacity="1" stroke-width="1" stroke-linecap="square" stroke-linejoin="bevel" transform="matrix(3.22581,0,0,3.22581,-104.839,-43.5484)"
font-family="Nimbus Sans L" font-size="12.5" font-weight="400" font-style="normal" 
clip-path="url(#clip416)" >
<polyline fill="none" vector-effect="none" points="61,47 61,46 " />
</g>

<g fill="#ffacac" fill-opacity="1" stroke="#000000" stroke-opacity="1" stroke-width="1" stroke-linecap="square" stroke-linejoin="bevel" transform="matrix(3.22581,0,0,3.22581,-104.839,-43.5484)"
font-family="Nimbus Sans L" font-size="12.5" font-weight="400" font-style="normal" 
clip-path="url(#clip416)" >
<polyline fill="none" vector-effect="none" points="61,46 62,45 " />
</g>

<g fill="#ffacac" fill-opacity="1" stroke="#000000" stroke-opacity="1" stroke-width="1" stroke-linecap="square" stroke-linejoin="bevel" transform="matrix(3.22581,0,0,3.22581,-104.839,-43.5484)"
font-family="Nimbus Sans L" font-size="12.5" font-weight="400" font-style="normal" 
clip-path="url(#clip416)" >
<polyline fill="none" vector-effect="none" points="62,45 62,44 " />
</g>

<g fill="#ffacac" fill-opacity="1" stroke="#000000" stroke-opacity="1" stroke-width="1" stroke-linecap="square" stroke-linejoin="bevel" transform="matrix(3.22581,0,0,3.22581,-104.839,-43.5484)"
font-family="Nimbus Sans L" font-size="12.5" font-weight="400" font-style="normal" 
clip-path="url(#clip416)" >
<polyline fill="none" vector-effect="none" points="62,44 63,43 " />
</g>

<g fill="#ffacac" fill-opacity="1" stroke="#000000" stroke-opacity="1" stroke-width="1" stroke-linecap="square" stroke-linejoin="bevel" transform="matrix(3.22581,0,0,3.22581,-104.839,-43.5484)"
font-family="Nimbus Sans L" font-size="12.5" font-weight="400" font-style="normal" 
clip-path="url(#clip416)" >
<polyline fill="none" vector-effect="none" points="63,43 63,42 " />
</g>

<g fill="#ffacac" fill-opacity="1" stroke="#000000" stroke-opacity="1" stroke-width="1" stroke-linecap="square" stroke-linejoin="bevel" transform="matrix(3.22581,0,0,3.22581,-104.839,-43.5484)"
font-family="Nimbus Sans L" font-size="12.5" font-weight="400" font-style="normal" 
clip-path="url(#clip416)" >
<polyline fill="none" vector-effect="none" points="63,42 63,41 " />
</g>

<g fill="#ffacac" fill-opacity="1" stroke="#000000" stroke-opacity="1" stroke-width="1" stroke-linecap="square" stroke-linejoin="bevel" transform="matrix(3.22581,0,0,3.22581,-104.839,-43.5484)"
font-family="Nimbus Sans L" font-size="12.5" font-weight="400" font-style="normal" 
clip-path="url(#clip416)" >
<polyline fill="none" vector-effect="none" points="63,41 64,41 " />
</g>

<g fill="#ffacac" fill-opacity="1" stroke="#000000" stroke-opacity="1" stroke-width="1" stroke-linecap="square" stroke-linejoin="bevel" transform="matrix(3.22581,0,0,3.22581,-104.839,-43.5484)"
font-family="Nimbus Sans L" font-size="12.5" font-weight="400" font-style="normal" 
clip-path="url(#clip416)" >
<polyline fill="none" vector-effect="none" points="64,41 64,40 " />
</g>

<g fill="#ffacac" fill-opacity="1" stroke="#000000" stroke-opacity="1" stroke-width="1" stroke-linecap="square" stroke-linejoin="bevel" transform="matrix(3.22581,0,0,3.22581,-104.839,-43.5484)"
font-family="Nimbus Sans L" font-size="12.5" font-weight="400" font-style="normal" 
clip-path="url(#clip416)" >
<polyline fill="none" vector-effect="none" points="64,40 64,39 " />
</g>

<g fill="#ffacac" fill-opacity="1" stroke="#000000" stroke-opacity="1" stroke-width="1" stroke-linecap="square" stroke-linejoin="bevel" transform="matrix(3.22581,0,0,3.22581,-104.839,-43.5484)"
font-family="Nimbus Sans L" font-size="12.5" font-weight="400" font-style="normal" 
clip-path="url(#clip416)" >
<polyline fill="none" vector-effect="none" points="64,39 64,38 " />
</g>

<g fill="#ffacac" fill-opacity="1" stroke="#000000" stroke-opacity="1" stroke-width="1" stroke-linecap="square" stroke-linejoin="bevel" transform="matrix(3.22581,0,0,3.22581,-104.839,-43.5484)"
font-family="Nimbus Sans L" font-size="12.5" font-weight="400" font-style="normal" 
clip-path="url(#clip416)" >
<polyline fill="none" vector-effect="none" points="64,38 65,38 " />
</g>

<g fill="#ffacac" fill-opacity="1" stroke="#000000" stroke-opacity="1" stroke-width="1" stroke-linecap="square" stroke-linejoin="bevel" transform="matrix(3.22581,0,0,3.22581,-104.839,-43.5484)"
font-family="Nimbus Sans L" font-size="12.5" font-weight="400" font-style="normal" 
clip-path="url(#clip416)" >
<polyline fill="none" vector-effect="none" points="65,38 65,37 " />
</g>

<g fill="#ffacac" fill-opacity="1" stroke="#000000" stroke-opacity="1" stroke-width="1" stroke-linecap="square" stroke-linejoin="bevel" transform="matrix(3.22581,0,0,3.22581,-104.839,-43.5484)"
font-family="Nimbus Sans L" font-size="12.5" font-weight="400" font-style="normal" 
clip-path="url(#clip416)" >
<polyline fill="none" vector-effect="none" points="65,37 65,36 " />
</g>

<g fill="#ffacac" fill-opacity="1" stroke="#000000" stroke-opacity="1" stroke-width="1" stroke-linecap="square" stroke-linejoin="bevel" transform="matrix(3.22581,0,0,3.22581,-104.839,-43.5484)"
font-family="Nimbus Sans L" font-size="12.5" font-weight="400" font-style="normal" 
clip-path="url(#clip416)" >
<polyline fill="none" vector-effect="none" points="65,36 66,36 " />
</g>

<g fill="#ffacac" fill-opacity="1" stroke="#000000" stroke-opacity="1" stroke-width="1" stroke-linecap="square" stroke-linejoin="bevel" transform="matrix(3.22581,0,0,3.22581,-104.839,-43.5484)"
font-family="Nimbus Sans L" font-size="12.5" font-weight="400" font-style="normal" 
clip-path="url(#clip416)" >
<polyline fill="none" vector-effect="none" points="66,36 66,35 " />
</g>

<g fill="#ffacac" fill-opacity="1" stroke="#000000" stroke-opacity="1" stroke-width="1" stroke-linecap="square" stroke-linejoin="bevel" transform="matrix(3.22581,0,0,3.22581,-104.839,-43.5484)"
font-family="Nimbus Sans L" font-size="12.5" font-weight="400" font-style="normal" 
clip-path="url(#clip416)" >
<polyline fill="none" vector-effect="none" points="66,35 66,34 " />
</g>

<g fill="#ffacac" fill-opacity="1" stroke="#000000" stroke-opacity="1" stroke-width="1" stroke-linecap="square" stroke-linejoin="bevel" transform="matrix(3.22581,0,0,3.22581,-104.839,-43.5484)"
font-family="Nimbus Sans L" font-size="12.5" font-weight="400" font-style="normal" 
clip-path="url(#clip416)" >
<polyline fill="none" vector-effect="none" points="66,34 67,34 " />
</g>

<g fill="#ffacac" fill-opacity="1" stroke="#000000" stroke-opacity="1" stroke-width="1" stroke-linecap="square" stroke-linejoin="bevel" transform="matrix(3.22581,0,0,3.22581,-104.839,-43.5484)"
font-family="Nimbus Sans L" font-size="12.5" font-weight="400" font-style="normal" 
clip-path="url(#clip416)" >
<polyline fill="none" vector-effect="none" points="67,34 67,33 " />
</g>

<g fill="#ffacac" fill-opacity="1" stroke="#000000" stroke-opacity="1" stroke-width="1" stroke-linecap="square" stroke-linejoin="bevel" transform="matrix(3.22581,0,0,3.22581,-104.839,-43.5484)"
font-family="Nimbus Sans L" font-size="12.5" font-weight="400" font-style="normal" 
clip-path="url(#clip416)" >
<polyline fill="none" vector-effect="none" points="67,33 67,32 " />
</g>

<g fill="#ffacac" fill-opacity="1" stroke="#000000" stroke-opacity="1" stroke-width="1" stroke-linecap="square" stroke-linejoin="bevel" transform="matrix(3.22581,0,0,3.22581,-104.839,-43.5484)"
font-family="Nimbus Sans L" font-size="12.5" font-weight="400" font-style="normal" 
clip-path="url(#clip416)" >
<polyline fill="none" vector-effect="none" points="67,32 68,32 " />
</g>

<g fill="#ffacac" fill-opacity="1" stroke="#000000" stroke-opacity="1" stroke-width="1" stroke-linecap="square" stroke-linejoin="bevel" transform="matrix(3.22581,0,0,3.22581,-104.839,-43.5484)"
font-family="Nimbus Sans L" font-size="12.5" font-weight="400" font-style="normal" 
clip-path="url(#clip416)" >
<polyline fill="none" vector-effect="none" points="68,32 68,31 " />
</g>

<g fill="#ffacac" fill-opacity="1" stroke="#000000" stroke-opacity="1" stroke-width="1" stroke-linecap="square" stroke-linejoin="bevel" transform="matrix(3.22581,0,0,3.22581,-104.839,-43.5484)"
font-family="Nimbus Sans L" font-size="12.5" font-weight="400" font-style="normal" 
clip-path="url(#clip416)" >
<polyline fill="none" vector-effect="none" points="68,31 69,30 " />
</g>

<g fill="#ffacac" fill-opacity="1" stroke="#000000" stroke-opacity="1" stroke-width="1" stroke-linecap="square" stroke-linejoin="bevel" transform="matrix(3.22581,0,0,3.22581,-104.839,-43.5484)"
font-family="Nimbus Sans L" font-size="12.5" font-weight="400" font-style="normal" 
clip-path="url(#clip416)" >
<polyline fill="none" vector-effect="none" points="69,30 70,29 " />
</g>

<g fill="#ffacac" fill-opacity="1" stroke="#000000" stroke-opacity="1" stroke-width="1" stroke-linecap="square" stroke-linejoin="bevel" transform="matrix(3.22581,0,0,3.22581,-104.839,-43.5484)"
font-family="Nimbus Sans L" font-size="12.5" font-weight="400" font-style="normal" 
clip-path="url(#clip416)" >
<polyline fill="none" vector-effect="none" points="70,29 71,28 " />
</g>

<g fill="#ffacac" fill-opacity="1" stroke="#000000" stroke-opacity="1" stroke-width="1" stroke-linecap="square" stroke-linejoin="bevel" transform="matrix(3.22581,0,0,3.22581,-104.839,-43.5484)"
font-family="Nimbus Sans L" font-size="12.5" font-weight="400" font-style="normal" 
clip-path="url(#clip416)" >
<polyline fill="none" vector-effect="none" points="71,28 72,27 " />
</g>

<g fill="#ffacac" fill-opacity="1" stroke="#000000" stroke-opacity="1" stroke-width="1" stroke-linecap="square" stroke-linejoin="bevel" transform="matrix(3.22581,0,0,3.22581,-104.839,-43.5484)"
font-family="Nimbus Sans L" font-size="12.5" font-weight="400" font-style="normal" 
clip-path="url(#clip416)" >
<polyline fill="none" vector-effect="none" points="72,27 73,27 " />
</g>

<g fill="#ffacac" fill-opacity="1" stroke="#000000" stroke-opacity="1" stroke-width="1" stroke-linecap="square" stroke-linejoin="bevel" transform="matrix(3.22581,0,0,3.22581,-104.839,-43.5484)"
font-family="Nimbus Sans L" font-size="12.5" font-weight="400" font-style="normal" 
clip-path="url(#clip416)" >
<polyline fill="none" vector-effect="none" points="73,27 73,26 " />
</g>

<g fill="#ffacac" fill-opacity="1" stroke="#000000" stroke-opacity="1" stroke-width="1" stroke-linecap="square" stroke-linejoin="bevel" transform="matrix(3.22581,0,0,3.22581,-104.839,-43.5484)"
font-family="Nimbus Sans L" font-size="12.5" font-weight="400" font-style="normal" 
clip-path="url(#clip416)" >
<polyline fill="none" vector-effect="none" points="73,26 74,26 " />
</g>

<g fill="#ffacac" fill-opacity="1" stroke="#000000" stroke-opacity="1" stroke-width="1" stroke-linecap="square" stroke-linejoin="bevel" transform="matrix(3.22581,0,0,3.22581,-104.839,-43.5484)"
font-family="Nimbus Sans L" font-size="12.5" font-weight="400" font-style="normal" 
clip-path="url(#clip416)" >
<polyline fill="none" vector-effect="none" points="74,26 75,26 " />
</g>

<g fill="#ffacac" fill-opacity="1" stroke="#000000" stroke-opacity="1" stroke-width="1" stroke-linecap="square" stroke-linejoin="bevel" transform="matrix(3.22581,0,0,3.22581,-104.839,-43.5484)"
font-family="Nimbus Sans L" font-size="12.5" font-weight="400" font-style="normal" 
clip-path="url(#clip416)" >
<polyline fill="none" vector-effect="none" points="75,26 76,26 " />
</g>

<g fill="#ffacac" fill-opacity="1" stroke="#000000" stroke-opacity="1" stroke-width="1" stroke-linecap="square" stroke-linejoin="bevel" transform="matrix(3.22581,0,0,3.22581,-104.839,-43.5484)"
font-family="Nimbus Sans L" font-size="12.5" font-weight="400" font-style="normal" 
clip-path="url(#clip416)" >
<polyline fill="none" vector-effect="none" points="76,26 76,25 " />
</g>

<g fill="#ffacac" fill-opacity="1" stroke="#000000" stroke-opacity="1" stroke-width="1" stroke-linecap="square" stroke-linejoin="bevel" transform="matrix(3.22581,0,0,3.22581,-104.839,-43.5484)"
font-family="Nimbus Sans L" font-size="12.5" font-weight="400" font-style="normal" 
clip-path="url(#clip416)" >
<polyline fill="none" vector-effect="none" points="76,25 77,25 " />
</g>

<g fill="#ffacac" fill-opacity="1" stroke="#000000" stroke-opacity="1" stroke-width="1" stroke-linecap="square" stroke-linejoin="bevel" transform="matrix(3.22581,0,0,3.22581,-104.839,-43.5484)"
font-family="Nimbus Sans L" font-size="12.5" font-weight="400" font-style="normal" 
clip-path="url(#clip416)" >
<polyline fill="none" vector-effect="none" points="77,25 78,25 " />
</g>

<g fill="#ffacac" fill-opacity="1" stroke="#000000" stroke-opacity="1" stroke-width="1" stroke-linecap="square" stroke-linejoin="bevel" transform="matrix(3.22581,0,0,3.22581,-104.839,-43.5484)"
font-family="Nimbus Sans L" font-size="12.5" font-weight="400" font-style="normal" 
clip-path="url(#clip416)" >
<polyline fill="none" vector-effect="none" points="78,25 79,25 " />
</g>

<g fill="#ffacac" fill-opacity="1" stroke="#000000" stroke-opacity="1" stroke-width="1" stroke-linecap="square" stroke-linejoin="bevel" transform="matrix(3.22581,0,0,3.22581,-104.839,-43.5484)"
font-family="Nimbus Sans L" font-size="12.5" font-weight="400" font-style="normal" 
clip-path="url(#clip416)" >
<polyline fill="none" vector-effect="none" points="79,25 80,25 " />
</g>

<g fill="#ffacac" fill-opacity="1" stroke="#000000" stroke-opacity="1" stroke-width="1" stroke-linecap="square" stroke-linejoin="bevel" transform="matrix(3.22581,0,0,3.22581,-104.839,-43.5484)"
font-family="Nimbus Sans L" font-size="12.5" font-weight="400" font-style="normal" 
clip-path="url(#clip416)" >
<polyline fill="none" vector-effect="none" points="80,25 81,25 " />
</g>

<g fill="#ffacac" fill-opacity="1" stroke="#000000" stroke-opacity="1" stroke-width="1" stroke-linecap="square" stroke-linejoin="bevel" transform="matrix(3.22581,0,0,3.22581,-104.839,-43.5484)"
font-family="Nimbus Sans L" font-size="12.5" font-weight="400" font-style="normal" 
clip-path="url(#clip416)" >
<polyline fill="none" vector-effect="none" points="35,73 89,73 " />
</g>

<g fill="#ffacac" fill-opacity="1" stroke="#000000" stroke-opacity="1" stroke-width="1" stroke-linecap="square" stroke-linejoin="bevel" transform="matrix(3.22581,0,0,3.22581,-104.839,-43.5484)"
font-family="Nimbus Sans L" font-size="12.5" font-weight="400" font-style="normal" 
clip-path="url(#clip416)" >
<polyline fill="none" vector-effect="none" points="89,73 89,16 " />
</g>

<g fill="#ffacac" fill-opacity="1" stroke="#000000" stroke-opacity="1" stroke-width="1" stroke-linecap="square" stroke-linejoin="bevel" transform="matrix(3.22581,0,0,3.22581,-104.839,-43.5484)"
font-family="Nimbus Sans L" font-size="12.5" font-weight="400" font-style="normal" 
clip-path="url(#clip416)" >
<polyline fill="none" vector-effect="none" points="89,16 35,16 " />
</g>

<g fill="#ffacac" fill-opacity="1" stroke="#000000" stroke-opacity="1" stroke-width="1" stroke-linecap="square" stroke-linejoin="bevel" transform="matrix(3.22581,0,0,3.22581,-104.839,-43.5484)"
font-family="Nimbus Sans L" font-size="12.5" font-weight="400" font-style="normal" 
clip-path="url(#clip416)" >
<polyline fill="none" vector-effect="none" points="35,16 35,73 " />
</g>

<g fill="#ffacac" fill-opacity="1" stroke="#000000" stroke-opacity="1" stroke-width="1" stroke-linecap="square" stroke-linejoin="bevel" transform="matrix(3.22581,0,0,3.22581,-104.839,-43.5484)"
font-family="Nimbus Sans L" font-size="12.5" font-weight="400" font-style="normal" 
clip-path="url(#clip417)" >
<defs><clipPath id="clip417"><path vector-effect="none" fill-rule="evenodd" d="M-2,-2 L57,-2 L57,60 L-2,60 L-2,-2z "/>
</clipPath></defs></g>

<g fill="#ffacac" fill-opacity="1" stroke="#000000" stroke-opacity="1" stroke-width="1" stroke-linecap="square" stroke-linejoin="bevel" transform="matrix(1,0,0,1,0,0)"
font-family="Nimbus Sans L" font-size="12.5" font-weight="400" font-style="normal" 
clip-path="url(#clip417)" >
</g>

<g fill="none" stroke="#000000" stroke-opacity="1" stroke-width="1" stroke-linecap="square" stroke-linejoin="bevel" transform="matrix(3.22581,0,0,3.22581,6.45161,6.45161)"
font-family="Nimbus Sans L" font-size="12.5" font-weight="400" font-style="normal" 
clip-path="url(#clip417)" >
</g>

<g fill="none" stroke="#000000" stroke-opacity="1" stroke-width="1" stroke-linecap="square" stroke-linejoin="bevel" transform="matrix(3.22581,0,0,3.22581,6.45161,6.45161)"
font-family="Nimbus Sans L" font-size="12.5" font-weight="400" font-style="normal" 
clip-path="url(#clip417)" >
</g>

<g fill="none" stroke="none" transform="matrix(3.22581,0,0,3.22581,6.45161,6.45161)"
font-family="Nimbus Sans L" font-size="12.5" font-weight="400" font-style="normal" 
clip-path="url(#clip417)" >
<path vector-effect="none" fill-rule="evenodd" d="M0,0 L55,0 L55,58 L0,58 L0,0z "/>
</g>

<g fill="none" stroke="#000000" stroke-opacity="1" stroke-width="1" stroke-linecap="square" stroke-linejoin="bevel" transform="matrix(3.22581,0,0,3.22581,6.45161,6.45161)"
font-family="Nimbus Sans L" font-size="12.5" font-weight="400" font-style="normal" 
clip-path="url(#clip417)" >
</g>

<g fill="none" stroke="#000000" stroke-opacity="1" stroke-width="1" stroke-linecap="square" stroke-linejoin="bevel" transform="matrix(1,0,0,1,0,0)"
font-family="Nimbus Sans L" font-size="12.5" font-weight="400" font-style="normal" 
>
</g>

<g fill="none" stroke="#000000" stroke-opacity="1" stroke-width="1" stroke-linecap="square" stroke-linejoin="bevel" transform="matrix(1,0,0,1,0,0)"
font-family="Nimbus Sans L" font-size="12.5" font-weight="400" font-style="normal" 
>
</g>

<g fill="none" stroke="#000000" stroke-opacity="1" stroke-width="1" stroke-linecap="square" stroke-linejoin="bevel" transform="matrix(1,0,0,1,0,0)"
font-family="Nimbus Sans L" font-size="12.5" font-weight="400" font-style="normal" 
clip-path="url(#clip418)" >
<defs><clipPath id="clip418"><path vector-effect="non-scaling-stroke" fill-rule="evenodd" d="M0,0 L190,0 L190,200 L0,200 L0,0z "/>
</clipPath></defs></g>

<g fill="none" stroke="#000000" stroke-opacity="1" stroke-width="1" stroke-linecap="square" stroke-linejoin="bevel" transform="matrix(1,0,0,1,0,0)"
font-family="Nimbus Sans L" font-size="12.5" font-weight="400" font-style="normal" 
>
</g>

<g fill="none" stroke="#000000" stroke-opacity="1" stroke-width="1" stroke-linecap="square" stroke-linejoin="bevel" transform="matrix(1,0,0,1,0,0)"
font-family="Nimbus Sans L" font-size="12.5" font-weight="400" font-style="normal" 
>
</g>

<g fill="none" stroke="#000000" stroke-opacity="1" stroke-width="1" stroke-linecap="square" stroke-linejoin="bevel" transform="matrix(1,0,0,1,0,0)"
font-family="Nimbus Sans L" font-size="12.5" font-weight="400" font-style="normal" 
clip-path="url(#clip419)" >
<defs><clipPath id="clip419"><path vector-effect="non-scaling-stroke" fill-rule="evenodd" d="M0,0 L1,0 L1,1 L0,1 L0,0z "/>
</clipPath></defs></g>

<g fill="none" stroke="#000000" stroke-opacity="1" stroke-width="1" stroke-linecap="square" stroke-linejoin="bevel" transform="matrix(1,0,0,1,0,0)"
font-family="Nimbus Sans L" font-size="12.5" font-weight="400" font-style="normal" 
>
</g>

<g fill="none" stroke="#000000" stroke-opacity="1" stroke-width="1" stroke-linecap="square" stroke-linejoin="bevel" transform="matrix(1,0,0,1,0,0)"
font-family="Nimbus Sans L" font-size="12.5" font-weight="400" font-style="normal" 
>
</g>
</g>
</svg>
